<svg width="460" height="530" viewBox="0 0 460 530" fill="none" xmlns="http://www.w3.org/2000/svg">
    <path d="M226.933 3.33344C225.2 5.4668 224 8.93347 224 11.6001C224 15.6001 223.733 16.0001 221.467 14.6668C218.4 13.0668 214.667 12.9335 212.267 14.4001C209.333 16.2668 212.667 22.1335 218.533 25.4668C224 28.5334 224 28.5334 224 36.4001V44.2668L218.133 40.8001C212 37.2001 206.133 36.2668 204.667 38.8001C202.4 42.2668 205.6 46.1335 214.667 51.3334L224 56.6668V70.2668V83.8668L212.533 77.3334C204.133 72.4001 200.267 70.9334 197.867 71.4668C194.533 72.4001 193.867 74.6668 196 78.5334C196.667 79.8668 203.333 84.4001 210.667 88.6668C223.6 96.0001 224 96.4001 224 100.933C224 105.467 223.867 105.6 221.067 103.733C219.333 102.667 211.867 98.4001 204.533 94.1335C193.733 88.1335 190.267 86.6668 187.333 87.4668C185.067 88.0001 184.133 88.9334 184.533 90.2668C184.933 91.3334 185.333 92.9334 185.333 93.8668C185.333 94.9334 194 100.667 204.667 106.8L224 118V123.067V128.133L216.4 123.867C212.133 121.467 207.467 118.8 206 117.733C202.933 115.6 196.533 115.467 195.333 117.467C192.8 121.333 196.267 124.933 209.867 132.667L223.867 140.667L224 146.267C224 149.467 223.6 152 223.2 152C222.8 152 219.867 150.533 216.8 148.667C212.133 145.867 210.4 145.467 207.6 146.533C201.733 148.8 204.533 153.867 214.667 159.867L223.333 164.8L223.733 173.6L224.133 182.4L216.533 186.533C212.267 188.8 208.533 190.667 208.133 190.667C207.733 190.667 204 181.467 199.867 170.267C193.2 152 192.133 150 189.067 149.6C187.333 149.333 184.933 150.133 184 151.333C182.533 153.067 183.467 156.8 190 174.8C194.133 186.533 197.333 196.533 196.933 196.933C196.133 197.6 195.333 196.4 179.333 170C167.333 150 167.067 149.733 162.8 149.067C160.267 148.8 159.333 149.467 158.667 152.133C157.733 155.467 161.467 162.267 184.133 199.6C185.6 202 186.267 204.133 185.467 204.533C184.8 205.067 177.6 197.6 169.333 188C157.867 174.533 153.867 170.667 151.333 170.667C148.933 170.667 147.867 171.6 147.2 174C146.4 177.2 152 185.067 168.933 204.4C171.333 207.067 173.333 209.867 173.333 210.4C173.333 211.067 170.4 213.2 166.933 215.067L160.533 218.533L153.6 214.533L146.667 210.667V199.467C146.667 190.133 146.267 188 144 186C141.467 183.733 141.2 183.733 138.667 186C136.533 187.867 136 190.133 136 196.267V204L130.667 201.333L125.333 198.667V181.467C125.333 166.133 125.067 164.133 122.667 162C120.133 159.733 119.867 159.733 117.333 162C115.2 164 114.667 166.4 114.4 178.133L114 191.867L109.733 189.2L105.333 186.4V164.133C105.333 143.467 105.067 141.6 102.667 139.333C100.133 137.067 99.8668 137.067 97.3335 139.333C94.9335 141.467 94.6668 143.467 94.6668 160.933C94.6668 171.333 94.4001 180 94.0001 180C93.6001 180 91.7335 179.067 90.0001 177.867C86.8001 175.733 86.6668 175.333 86.6668 158.667C86.6668 144 86.4001 141.467 84.2668 139.6C82.0001 137.467 81.6001 137.467 78.9335 140.4C76.5335 142.933 76.0001 145.333 75.7335 156.267L75.3335 169.2L64.0001 162.667L52.6668 156.133L52.0001 143.867C51.4668 134.267 50.8001 131.333 49.0668 130.133C47.3335 129.067 46.1335 129.333 44.1335 131.2C41.8668 133.2 41.3335 135.333 41.3335 141.6V149.467L34.6668 145.867L28.0001 142.267V135.333C28.0001 130.133 27.3335 127.867 25.3335 126C22.8001 123.733 22.5335 123.733 20.0001 126C18.5335 127.333 17.3335 130.133 17.3335 132.133V135.867L12.8001 133.2C9.73346 131.467 7.06679 130.8 4.80012 131.467C-1.06654 132.933 0.933456 138.933 8.66679 143.333C10.9335 144.667 10.8001 145.067 7.60012 148.4C3.06679 152.8 3.06679 155.733 7.33346 157.333C9.86679 158.267 11.8668 157.867 16.5335 155.2L22.6668 151.867L29.3335 155.467L36.1335 159.2L29.3335 163.067C25.2001 165.467 22.4001 168.133 21.8668 170C20.0001 177.6 25.8668 177.867 38.1335 170.8L47.0668 165.6L57.2001 171.6C62.8001 174.8 67.8668 178 68.4001 178.667C69.0668 179.2 64.6668 182.4 58.6668 185.867C47.6001 192.267 43.0668 197.733 46.9335 200.267C50.4001 202.4 53.8668 201.2 67.6001 193.333C81.0668 185.6 81.6001 185.467 84.6668 187.467C86.5335 188.667 88.0001 189.867 88.0001 190C88.0001 190.267 81.0668 194.533 72.6668 199.333C64.1335 204.267 56.6668 209.333 56.0001 210.667C53.7335 214.8 54.5335 216.933 58.1335 217.733C60.9335 218.267 66.0001 215.867 80.0001 207.867C90.1335 202.133 98.9335 197.333 99.7335 197.333C101.733 197.333 108 200.267 108 201.2C108 201.6 102.933 204.933 96.8001 208.4C86.6668 214.267 84.1335 216.8 84.0001 221.6C84.0001 222 85.7335 222.8 87.7335 223.333C90.8001 224 94.2668 222.533 105.733 216L120 207.733L124.8 210.8L129.6 213.733L123.467 217.2C119.733 219.333 116.933 222.133 116.133 224.4C114.933 227.733 115.2 228.267 118.133 229.333C120 230.133 121.733 230.667 122 230.667C122.267 230.667 126.667 228.267 131.733 225.333L141.067 219.867L147.867 224L154.667 228.267V238.133C154.667 243.733 154.267 247.867 153.733 247.6C153.067 247.2 143.467 245.333 132.267 243.467C110.933 239.733 108 240 108 245.2C108 249.467 110.4 250.4 129.333 253.867C154.133 258.4 154.667 258.533 154.667 260C154.667 260.8 144.133 261.333 126.933 261.333C101.6 261.333 98.9335 261.6 96.9335 263.733C94.1335 266.8 94.1335 268.533 96.6668 270.667C98.2668 272 105.733 272.267 126.667 272.133C144.533 272 154.667 272.267 154.667 273.2C154.667 274.933 153.2 275.333 130 279.333C110.533 282.8 108 283.733 108 288.133C108 293.467 111.067 293.733 131.733 290.133C142.533 288.267 152.133 286.667 153.067 286.667C154.133 286.667 154.667 289.2 154.667 294.533V302.4L147.6 306L140.533 309.733L131.333 304.4C124.267 300.267 121.333 299.2 118.8 300C116.933 300.4 115.467 301.2 115.733 301.733C115.867 302.267 116 303.867 116 305.2C116 306.8 118.4 309.333 122.8 312L129.733 316.267L125.867 318.8C123.733 320.133 121.2 321.333 120.133 321.333C119.067 321.333 112.133 317.733 104.667 313.467C94.4001 307.467 90.4001 305.733 87.6001 306.267C83.3335 307.067 82.8001 310.8 86.5335 314.533C87.8668 315.867 92.9335 319.2 97.8668 322C102.667 324.667 106.933 327.467 107.333 328C107.733 328.667 106.267 330.133 103.867 331.333L99.7335 333.467L80.2668 322.267C63.0668 312.4 60.2668 311.2 57.2001 312.267C53.8668 313.333 53.7335 313.867 54.8001 317.067C55.7335 319.867 60.1335 323.067 72.0001 330C80.8001 335.2 88.0001 339.733 88.0001 340.133C88.0001 340.533 86.4001 341.6 84.5335 342.533C81.3335 343.867 79.7335 343.333 66.6668 336C55.2001 329.467 51.4668 328.133 48.6668 328.8C45.8668 329.467 45.3335 330.267 45.8668 332.533C46.2668 334 46.6668 335.733 46.6668 336.133C46.6668 336.667 51.7335 340 58.0001 343.467C64.2668 347.067 69.3335 350.267 69.3335 350.667C69.3335 351.067 64.2668 354.267 58.1335 357.733L46.8001 364.267L37.3335 358.667C29.7335 354.267 27.0668 353.333 24.0001 354C19.4668 354.933 19.6001 354.8 21.3335 359.2C22.0001 361.067 25.4668 364.267 29.4668 366.533L36.4001 370.4L29.3335 374.4L22.2668 378.4L17.2001 375.2C14.4001 373.467 11.2001 372 10.1335 372C3.33346 372 2.00012 376.933 7.46679 382L10.9335 385.2L6.93346 387.2C4.66679 388.4 2.26679 391.067 1.60012 393.333C0.266789 397.067 0.400123 397.333 3.60012 398.133C5.60012 398.667 8.80012 398.133 11.4668 396.8C17.4668 394 17.3335 394 17.3335 398.4C17.3335 400.533 18.5335 403.333 20.0001 404.667C22.5335 406.933 22.8001 406.933 25.3335 404.667C27.3335 402.8 28.0001 400.533 28.0001 394.8V387.333L34.6668 383.733L41.3335 380V387.733C41.3335 394.133 41.8668 396 44.4001 398.4C47.4668 401.333 47.6001 401.333 49.7335 398.933C51.4668 397.067 52.0001 393.867 52.0001 385.2V373.867L62.8001 367.6C68.6668 364.133 74.0001 361.333 74.8001 361.333C75.4668 361.333 76.0001 367.2 76.0001 374.4C76.0001 385.867 76.4001 387.867 78.6668 390C81.2001 392.267 81.4668 392.267 84.0001 390C86.4001 387.867 86.6668 385.867 86.6668 370.8V353.867L90.6668 351.6L94.6668 349.2V369.067C94.6668 386.533 94.9335 389.2 97.0668 391.067C99.3335 393.2 99.7335 393.067 102.4 390.267C105.2 387.333 105.333 385.867 105.333 364.933V342.8L109.333 340.667C111.467 339.6 113.467 338.667 114 338.667C114.4 338.667 114.667 344.533 114.667 351.733C114.667 363.2 115.067 365.2 117.333 367.333C119.867 369.6 120.133 369.6 122.667 367.333C125.067 365.2 125.333 363.2 125.333 348V331.2L130 328.933C132.667 327.733 135.067 326.667 135.467 326.667C135.867 326.667 136 330 135.867 334C135.6 339.467 136.133 342 138 344L140.4 346.667L143.6 343.733C146.267 341.2 146.667 339.6 146.667 329.867V318.933L153.733 315.333L160.933 311.6L168.4 315.867C172.533 318.267 176 320.667 176 321.333C176 322.4 171.6 327.867 150.933 352.267C147.867 356 149.867 361.333 154.4 361.333C157.2 361.333 159.467 359.6 164.667 353.067C178.133 336.4 187.2 326.4 187.733 327.733C188 328.533 182.4 339.6 175.2 352.267C162.933 374.133 160.8 380 163.867 383.067C164.533 383.733 166.533 383.467 168.667 382.533C171.2 381.2 175.333 375.333 182.267 362.667C197.467 335.333 198.667 333.2 199.867 334C200.533 334.267 197.467 344.267 193.2 356.133C186.933 373.333 185.6 378 186.8 380.133C187.733 382 189.333 382.667 191.733 382.4C195.067 382 195.867 380.533 202.667 362.4C206.667 351.6 210.4 342.4 210.933 342C211.333 341.467 214.533 342.667 217.867 344.667L224 348.267V356.533V364.8L215.067 369.867C210 372.667 205.867 375.067 205.733 375.2C205.6 375.333 205.2 376.933 204.667 378.933C203.867 382.133 204.267 382.8 207.2 384C210.133 385.067 211.867 384.533 217.333 381.333L224 377.467V383.333V389.2L209.733 397.6C197.733 404.667 195.2 406.667 194.933 409.6C194.533 412.533 195.2 413.467 197.867 414.133C200.533 414.8 203.733 413.467 211.733 408.8C217.467 405.467 222.667 402.667 223.2 402.667C223.733 402.667 224 404.933 223.733 407.6C223.333 412.533 222.933 412.8 204.8 423.467C184.133 435.333 180.133 439.867 187.467 442.667C190.4 443.867 192.4 443.067 202 437.333C208.267 433.733 215.733 429.467 218.667 428L224 425.333V429.6C224 433.733 223.2 434.4 210 442C199.733 447.867 195.733 450.933 194.8 453.6C193.733 456.8 193.867 457.333 197.333 458.4C200.133 459.467 201.867 459.2 204.8 457.467C206.933 456.267 212.133 453.2 216.4 450.8L224 446.533V459.867V473.2L215.733 478.133C206.4 483.6 204 486 204 489.6C204 493.733 210 494 216.533 490.133C225.2 485.067 225.867 485.333 224.933 494.267C224.533 498.533 223.467 502.133 222.8 502.4C218.267 503.867 212.667 509.2 212.267 512.267C212 514.933 212.533 515.867 215.333 516.533C217.2 517.067 219.867 516.8 221.333 516C225.067 514 225.333 514.267 225.333 519.733C225.333 523.333 226.267 525.733 228.133 527.467C230.8 529.867 230.933 529.867 233.467 526.667C234.8 524.8 236 521.333 236 518.933C236 514.533 237.067 513.6 239.6 516.133C240.533 517.067 242.8 517.2 245.333 516.667C248.8 515.867 249.467 515.2 248.8 512.933C248.4 511.333 248 509.6 248 509.067C248 508.667 245.333 506.667 242 504.8C236 501.2 236 501.2 236 494C236 490 236.267 486.667 236.667 486.667C237.067 486.667 239.733 488.133 242.667 490C248.267 493.467 251.467 494.133 254.667 492C258.533 489.6 254.667 484 245.333 478.8L236.667 473.867L236.267 460.133L235.867 446.267L238.933 448.267C250.533 455.733 259.467 459.733 262.4 458.533C265.733 457.2 266.267 453.2 263.467 450.267C262.4 449.2 255.733 445.2 248.8 441.2C236.8 434.4 236 433.733 236 429.6C236 427.2 236.4 425.467 237.067 425.733C269.6 444.4 268.933 444.133 272.667 442.667C275.467 441.6 276 440.8 275.333 438.267C274 434.133 274.267 434.267 254.533 422.933C237.067 412.8 236.667 412.533 236.267 407.6C236 404.933 236.133 402.667 236.4 402.667C236.8 402.667 241.733 405.333 247.467 408.667C253.333 412 258.933 414.667 260 414.667C263.867 414.667 265.733 412.4 264.8 408.933C264.267 406.4 260.533 403.467 250 397.333L236 389.2V383.2V377.333L241.733 380.933C247.067 384.4 252.667 385.2 254.933 382.933C257.6 380.267 253.2 374.8 244.667 370L235.867 365.067L236.267 356.267L236.667 347.467L244 343.2C248 340.8 251.733 339.333 252.133 339.733C252.933 340.533 262.267 365.333 265.733 375.6C267.467 381.067 271.467 382.533 274.933 378.933C277.467 376.4 277.467 376.267 273.6 365.2C271.333 359.067 267.733 349.333 265.6 343.733C263.333 338 262 333.067 262.667 332.667C263.2 332.267 270.133 342.8 278.133 356C292.133 379.467 295.6 383.467 299.733 380.8C303.6 378.4 301.867 373.867 288 350.8C280 337.467 274.133 326.267 274.933 325.867C275.6 325.467 276.267 325.333 276.533 325.467C276.667 325.733 283.2 333.6 291.2 342.933C305.067 359.6 308.267 361.867 311.733 358.4C314.8 355.333 313.2 352.267 302.4 339.333C296.267 332.133 290 324.667 288.4 322.667L285.467 319.067L292.267 315.333L299.2 311.6L306.267 315.467L313.333 319.2V330C313.333 339.733 313.733 341.2 316.533 343.867L319.6 346.8L321.867 343.467C323.067 341.467 324 337.333 324 333.333C324 329.733 324.4 326.667 325.067 326.667C325.6 326.667 328 327.867 330.4 329.333L334.667 332V348.4C334.667 363.2 334.933 365.2 337.333 367.333C339.867 369.6 340.133 369.6 342.667 367.333C344.933 365.2 345.333 363.2 345.333 351.733C345.333 344.4 345.733 338.667 346.4 338.933C346.933 339.2 348.933 340.267 351.067 341.2L354.667 343.067V366C354.667 386.533 354.933 389.2 357.067 391.067C359.333 393.2 359.733 393.067 362.4 390.267C365.067 387.333 365.333 385.867 365.333 368.267V349.467L369.333 351.733L373.333 354V370.8C373.333 385.867 373.6 387.867 376 390C378.533 392.267 378.8 392.267 381.333 390C383.6 387.867 384 385.867 384 374.267C384 359.067 382.933 359.6 397.2 368L406.4 373.2L407.333 384.933C407.867 392.533 408.933 397.467 410.4 399.067C412.4 401.2 412.667 401.2 415.6 398.4C418.133 396 418.667 394.133 418.667 387.733V380L425.333 384.133C432 388.267 432 388.267 432 395.2C432 400.4 432.667 402.8 434.533 404.533C436.933 406.8 437.2 406.667 439.867 404.4C441.467 403.067 442.667 400.533 442.667 398.4C442.667 394.133 443.467 393.867 447.2 396.667C450 398.8 454.267 399.2 457.733 397.867C460.934 396.667 458 390.267 453.067 387.333L448.933 384.933L451.733 382.667C453.2 381.333 454.934 378.8 455.333 376.933C456.667 371.733 450.667 370.533 443.867 374.4C437.467 378.133 436.8 378.133 429.6 373.867L423.733 370.4L429.467 367.067C439.2 361.733 441.733 355.733 435.2 354.133C432.533 353.467 429.6 354.533 422.4 358.667L413.2 364.133L402 357.867C395.733 354.4 390.667 351.2 390.667 350.8C390.667 350.4 395.733 347.067 402 343.6C408.267 340 413.333 336.4 413.333 335.333C413.333 334.4 413.733 332.667 414.133 331.6C414.533 330.267 413.6 329.467 411.067 328.933C408.133 328.4 404.133 330 392.933 336.267C379.733 343.733 378.267 344.267 375.2 342.667C373.467 341.6 372 340.533 372 340.133C372 339.733 379.2 335.2 388 330C399.867 323.067 404 320 404.667 317.467C405.467 314.133 403.733 312 399.733 312C398.533 312 389.2 316.8 378.933 322.8L360.267 333.467L356.133 331.333C353.867 330.267 352 329.067 352 328.667C352 328.4 357.067 325.2 363.2 321.467C371.6 316.4 374.533 313.867 374.933 311.333C376.4 304 369.733 304.8 354.267 313.867C340.933 321.867 338.4 322.4 332.667 318.133C330.267 316.4 330.4 316.133 336.4 312.533C342.533 308.8 345.2 304.4 343.333 301.467C341.733 298.8 336.133 300 328.133 304.667C323.867 307.2 319.467 309.333 318.4 309.2C317.467 309.2 314 307.467 310.667 305.467L304.667 301.733L304.8 292.933C304.8 288 305.067 283.733 305.467 283.467C305.733 283.2 315.467 284.667 326.933 286.667C347.333 290.267 348 290.267 350.133 287.867C352 285.867 352.133 284.667 351.067 282.267C349.733 279.467 347.467 278.8 327.867 275.467C315.867 273.333 305.467 271.2 304.933 270.667C304.4 270.133 316.667 269.333 332.267 268.933C358 268.133 360.8 267.733 363.2 265.333C365.733 262.8 365.733 262.667 363.333 259.867C360.8 257.2 359.867 257.067 333.067 257.467C295.333 258 294.533 256.933 328.533 250.8C351.867 246.533 355.067 244.8 350.267 238.4C348.667 236.267 347.333 236.4 329.867 239.333C319.733 241.2 310 242.933 308.267 243.333C305.333 244 305.2 243.867 305.6 235.867L306 227.6L312.267 223.733L318.533 219.867L327.867 225.333C335.467 229.867 338 230.8 341.333 230C344.8 229.2 345.333 228.667 344.533 226.267C343.2 222 341.467 220.133 335.733 217.2C330.133 214.267 330.133 213.067 336.133 210C339.867 208 340.267 208.133 353.733 216C361.333 220.4 368.667 224 370.133 224C374.267 224 375.867 222.267 375.067 218.533C374.533 215.733 372 213.6 363.2 208.667C357.067 205.2 352 202 352 201.6C352 201.067 353.733 199.733 355.867 198.533C359.6 196.4 359.733 196.4 378.8 207.467C393.733 216.133 398.8 218.533 401.333 217.867C405.733 216.933 405.733 216.667 404.8 212.8C404.133 210.267 400.667 207.467 390.933 201.867C383.867 197.733 376.4 193.333 374.4 192.133L370.8 190L374.667 187.733C378.533 185.6 378.533 185.6 392.267 193.733C405.2 201.333 410.8 203.067 413.6 200.267C416.533 197.333 411.867 192.133 400.8 185.867L389.467 179.333L395.067 175.867C398.133 174 403.333 170.933 406.667 168.933L412.667 165.467L422.267 171.333C429.6 175.867 432.533 176.933 435.2 176.267C437.067 175.733 438.667 174.933 438.667 174.267C438.8 168.533 438.267 167.733 431.2 163.867C423.2 159.333 423.2 159.2 431.6 154.667L437.067 151.6L442.933 155.067C453.467 161.2 460.4 156.4 452.533 148.4C448.8 144.667 448.667 144.8 455.2 140.667C456.267 139.867 457.6 137.733 458 135.867C458.8 132.8 458.4 132.267 455.333 131.467C452.8 130.8 450.267 131.333 447.2 133.2L442.667 135.867V132.133C442.667 130.133 441.467 127.333 440 126C437.467 123.733 437.2 123.733 434.667 126C432.667 127.867 432 130.133 432 135.2C432 142 432 142 425.333 145.733L418.667 149.467V142.267C418.667 136.4 418.133 134.533 415.333 132L412.133 128.933L409.333 132.133C407.067 134.8 406.667 137.067 406.8 145.867L407.067 156.267L395.867 162.8L384.667 169.2L384.267 156.133C384 145.067 383.467 142.667 381.333 140.667C378.8 138.4 378.533 138.4 376 140.667C373.6 142.8 373.333 144.8 373.333 159.467V175.867L369.333 178L365.333 180.133V160.933C365.333 143.467 365.067 141.6 362.667 139.333C360.133 137.067 359.867 137.067 357.333 139.333C354.933 141.6 354.667 143.467 354.667 164.133V186.4L350.4 189.2L346 191.867L345.6 178.933C345.333 168 344.8 165.6 342.4 163.067C339.733 160.133 339.333 160.133 337.067 162.267C334.933 164.133 334.667 166.667 334.667 181.467V198.667L329.333 201.333L324 204V196.267C324 190.133 323.467 187.867 321.333 186C318.8 183.733 318.533 183.733 316 186C313.733 188 313.333 190.133 313.333 199.467V210.533L306.133 214.533L298.933 218.667L290.8 213.867C283.467 209.467 282.8 208.667 284.4 206.8C298.933 189.867 310.667 175.2 310.667 173.867C310.667 171.333 306.667 167.867 304.267 168.267C303.067 168.533 295.867 176.133 288.133 185.2C280.4 194.267 273.333 202 272.4 202.267C271.467 202.667 276.933 191.867 284.267 178.4C291.733 164.933 297.733 152.8 297.6 151.467C297.333 147.733 295.333 146.267 291.733 147.067C289.2 147.733 285.6 153.2 275.2 172C268 185.2 261.2 196 260.267 196C258.133 196 257.867 196.933 267.2 172C273.333 155.467 274.133 152.267 272.667 150C271.2 147.733 266.133 146.933 264.267 148.667C264 148.933 260.533 158 256.533 168.8C252.533 179.6 249.067 188.667 248.8 188.933C248 189.733 235.6 182.133 235.867 180.933C235.867 180.4 236 176.667 236 172.667V165.467L245.2 160.133C253.333 155.333 255.867 152.4 256 147.733C256 147.333 254.267 146.533 252.133 146C249.2 145.333 246.8 146 242.8 148.533C239.867 150.4 237.067 152 236.667 152C236.267 152 236 149.467 236 146.267V140.667L250.267 132.667C261.467 126.4 264.667 123.867 265.467 121.067C266.267 118 265.867 117.333 262.667 116.267C259.867 115.2 258.133 115.467 255.2 117.2C253.067 118.4 247.867 121.467 243.733 123.867L236 128.133V123.067V118L255.2 106.933C273.2 96.6668 275.867 94.2668 276 89.2001C276 88.6668 274.4 87.8668 272.533 87.4668C269.733 86.6668 265.6 88.5334 252.667 95.7334L236.267 104.933L235.733 101.067C235.067 96.6668 234.533 97.0668 249.333 88.6668C263.333 80.6668 265.333 79.0668 265.333 75.3334C265.333 73.2001 264.267 72.0001 262 71.4668C259.333 70.8001 255.867 72.1335 247.067 77.3334C240.8 81.0668 235.467 83.8668 235.2 83.6001C234.933 83.3334 235.067 77.2001 235.6 69.8668L236.4 56.5334L245.467 51.3334C252 47.7334 254.933 45.2001 255.867 42.4001C256.933 39.6001 256.8 38.4001 255.6 38.0001C254.667 37.7334 253.067 37.2001 252 36.9334C250.933 36.5334 246.8 38.0001 243.067 40.1335C239.2 42.2668 235.867 44.0001 235.733 44.0001C235.467 44.0001 235.467 40.6668 235.467 36.5334C235.733 29.0668 235.733 28.9334 241.733 25.3334C248.933 20.6668 250.933 15.0668 245.733 13.8668C243.867 13.3334 240.933 13.7335 239.2 14.5334C234.667 16.5334 234.667 16.6668 234.667 10.8001C234.667 7.73346 233.6 4.40009 232.267 2.66681L229.867 -0.399902L226.933 3.33344ZM241.867 198.267C257.333 207.067 256.533 205.867 251.733 214.4C249.467 218.667 247.333 222.267 247.2 222.533C246.933 222.8 243.067 220.8 238.667 218.133C234.133 215.467 230.133 213.333 229.6 213.333C229.067 213.333 225.2 215.467 220.933 218C216.667 220.533 212.667 222.667 212 222.667C210.8 222.667 202.133 208.133 202.8 207.333C204.267 206 228.8 192 229.867 192C230.533 192 236 194.8 241.867 198.267ZM283.733 222.667L293.333 228.267V243.467V258.667H284H274.667V248.667V238.8L266 234C261.2 231.333 257.333 228.533 257.333 227.733C257.333 227.067 259.2 223.2 261.6 219.333L265.867 212.133L270 214.533C272.133 215.867 278.4 219.467 283.733 222.667ZM197.067 221.2L201.333 229.067L193.067 234.133L184.933 239.333L185.2 249.6L185.467 260H175.467H165.467L166.133 244.267C166.533 235.733 167.333 228.133 168 227.6C169.2 226.267 190.933 213.467 192 213.467C192.4 213.333 194.667 216.8 197.067 221.2ZM240.4 232C240.933 232.533 239.467 236.4 236.933 240.8C230.8 251.733 228.4 251.733 222.133 241.2C219.467 236.667 217.467 232.8 217.6 232.667C217.867 232.533 220.667 230.8 224 228.933L229.867 225.467L234.667 228.267C237.2 229.867 239.867 231.467 240.4 232ZM212.533 246.8C219.2 258 218 260 205.2 260H195.867L196.267 252.4C196.667 245.067 196.8 244.667 202 241.733C204.933 240.133 207.467 238.667 207.467 238.667C207.6 238.667 209.867 242.267 212.533 246.8ZM258.267 242C263.867 245.333 264 245.6 264 252.133V258.8L253.733 258.4C245.333 258.133 243.333 257.6 242.933 255.733C242.533 253.6 250.133 238.667 251.733 238.667C252.133 238.667 255.067 240.133 258.267 242ZM264 277.067C264 284.8 264 284.8 258.4 288C252.133 291.467 252.533 291.733 245.867 280.533C241.067 272.533 242.4 270.933 253.733 270.267C259.067 270.133 263.467 269.733 263.733 269.6C263.867 269.467 264 272.8 264 277.067ZM293.333 285.733V302.133L281.2 309.067C274.533 312.933 268.667 316 268.133 316C267.6 316 265.2 312.667 262.667 308.533C257.733 300.267 257.333 301.333 268.267 294.933L274.667 291.333V280.267V269.333H284H293.333V285.733ZM216.133 272.8C217.6 274.667 217.2 276.133 213.333 283.467C210.8 288.133 208.533 292 208.533 292C208.4 292 205.6 290.4 202.133 288.533C196 285.067 196 285.067 196 277.867V270.667H205.2C212 270.667 214.8 271.2 216.133 272.8ZM184.933 278C183.467 288.533 184.667 291.067 194.133 296.533C198.8 299.2 202.667 301.867 202.667 302.4C202.667 304 194.667 317.333 193.733 317.333C193.2 317.333 186.933 314 179.733 309.867L166.667 302.4V287.2V272H176.133H185.733L184.933 278ZM234.933 284.267C236 286 238.133 289.467 239.733 292.133L242.667 297.067L236.533 300.667C230.133 304.4 227.333 304.133 220.8 299.333C218.533 297.6 218.533 297.2 222.8 289.467C227.733 280.533 231.467 278.933 234.933 284.267ZM253.067 314.267C255.467 318.4 256.933 322.267 256.267 322.933C255.2 324 230.8 338.667 230 338.667C229.333 338.667 206 325.067 204.933 324.133C204.133 323.333 210.267 310.933 212.8 308.133C213.067 307.867 216.933 309.867 221.467 312.533L229.733 317.467L238.533 312.133C243.333 309.2 247.6 306.8 248 306.667C248.4 306.667 250.667 310 253.067 314.267Z" fill="#B3E2FF"/>
</svg>
