<svg width="446" height="503" viewBox="0 0 446 503" fill="none" xmlns="http://www.w3.org/2000/svg">
    <path d="M211.133 3.20007L208.066 6.40005L209.533 46.1334C210.2 68.0001 210.6 86.1334 210.333 86.4001C210.066 86.6667 207.533 85.3334 204.733 83.4667C196.866 78.0001 189.666 78.9334 189.666 85.4667C189.666 90.1334 191.8 92.2667 202.6 99.3334L210.733 104.533L211.666 118C212.066 125.333 212.333 137.467 212.066 145.067L211.666 158.8L197.266 149.333C182.733 139.867 177 138 173.8 141.867C173 142.8 172.733 145.333 173.133 147.467C173.8 150.667 177.266 153.6 193.8 164.533L213.666 177.733V187.333C213.666 192.667 214.066 200.533 214.466 204.933L215.4 212.933L203.133 219.733L190.866 226.533L175.933 218.4C167.666 213.867 160.867 210.133 160.6 210C160.333 209.733 159 199.333 157.4 186.8C154.6 164.4 154.466 163.733 150.6 161.067L146.733 158.267L143.4 161.733L139.933 165.067L142.2 182.667C143.4 192.4 144.2 200.533 143.933 200.8C143.266 201.6 98.4665 177.2 96.8665 175.2C96.0665 174.133 94.8665 168.933 94.4665 163.6C92.9998 149.467 86.3332 143.467 80.9998 151.467C79.2665 154.133 78.8665 156.533 79.5332 160.933C80.1998 166.267 80.0665 166.8 77.9332 166.133C76.7332 165.6 60.9998 157.333 43.1332 147.867C14.7332 132.667 9.93318 130.533 6.06651 131.333C0.599842 132.267 -0.200158 133.733 1.66651 139.067C2.86651 142.933 6.33317 145.067 37.6665 161.733C56.7332 171.867 72.3332 180.4 72.3332 180.8C72.3332 181.067 69.9332 182.533 66.9998 184C58.0665 188.533 56.4665 196.933 63.9332 198.933C67.6665 199.867 69.9332 199.2 78.9998 194.667L89.6665 189.333L113 201.6C125.8 208.4 136.333 214.4 136.333 214.933C136.333 215.333 129.133 219.467 120.467 223.867C106.2 231.2 104.467 232.4 103.667 236.267C102.6 240.933 105.133 244 110.067 244C111.533 244 121.8 239.333 133.133 233.733L153.533 223.333L167.266 230.533C174.867 234.533 181.8 238.4 182.733 239.067C183.933 240 184.333 244 184.066 253.2L183.666 265.867L174.333 271.333C169.266 274.4 162.6 278.133 159.666 279.867L154.2 282.8L133.8 273.333C116.867 265.467 112.6 263.867 109 264.533C103.667 265.6 102.733 267.467 105 272.8C106.333 276.133 109.4 278.133 122.2 284C130.733 288 137.666 291.6 137.666 292C137.666 292.8 93.9332 317.867 91.5332 318.4C90.5998 318.667 85.6665 316.667 80.3332 314C71.6665 309.6 70.3332 309.333 66.1998 310.667C62.8665 311.867 61.6665 312.933 61.6665 315.2C61.6665 319.6 65.1332 323.6 70.3332 325.333C72.8665 326.133 74.9998 327.333 74.9998 327.733C74.9998 328.267 59.3998 337.6 40.4665 348.4C9.13317 366.4 5.93318 368.533 5.13318 372.267C4.06651 377.333 4.73318 378.4 10.0665 379.333C13.7998 380.133 18.4665 377.733 48.0665 360.8C66.7332 350.133 82.1998 341.333 82.4665 341.333C82.8665 341.333 82.9998 344.267 82.8665 347.867C82.4665 354.667 85.3998 361.333 88.8665 361.333C89.7998 361.333 92.1998 360.133 93.9332 358.667C96.9998 356.4 97.3998 354.8 98.3332 343.6L99.2665 331.2L121.4 318.667C133.533 311.733 144.2 305.867 145.133 305.6C146.066 305.333 146.466 306.4 146.2 308.267C145.933 310 145.133 317.867 144.466 326C143.4 339.467 143.533 340.933 145.933 344.267C149.133 348.8 151 348.933 154.867 344.8C157.4 342.133 158.066 338.933 159.666 323.867C160.733 314 161.666 303.6 161.666 300.667V295.333L174.6 288C181.666 284 188.466 280.133 189.8 279.467C193.133 277.867 215.666 290.8 216.866 295.067C217.266 296.667 217.666 304.533 217.533 312.667V327.333L199 341.067C184.466 351.867 180.333 355.6 179.666 358.667C178.6 363.6 179.4 364.933 184.333 366C187.933 366.8 190.066 365.6 203.133 356C211.133 349.867 217.933 345.2 218.2 345.467C218.466 345.733 219.133 358 219.533 372.667L220.466 399.333L210.466 406.667C201.133 413.467 200.466 414.4 200.333 418.8C200.333 426.667 207 427.733 215 421.333C217.8 419.067 220.333 417.333 220.733 417.333C221 417.333 221.666 435.2 222.2 456.933C223.133 494.667 223.4 496.8 226.066 499.6C229.4 503.333 232.466 503.467 235.533 500.133C237.666 497.733 237.8 494.533 236.866 458.133C236.333 435.067 236.466 418.667 237.133 418.667C237.8 418.667 239.8 419.867 241.666 421.333C245.533 424.267 250.733 424.8 254.066 422.267C255.8 421.067 256.2 419.6 255.533 416.4C254.866 412.933 252.866 410.933 245 405.733L235.266 399.467L234.333 375.333C233.8 362.133 233.533 350 233.8 348.4C234.333 345.6 235.266 346 248.333 354.667C262.333 363.867 267.133 365.467 271.4 362.267C273.266 360.933 273.4 359.867 272.2 356C271 352 268.333 349.733 251.533 338.8L232.2 326.267L232.6 308.4L233 290.533L244.6 284.267L256.333 278L269.933 285.2C277.533 289.2 284.066 292.8 284.6 293.2C285.133 293.6 286.866 304.133 288.333 316.667C290.733 335.333 291.8 339.867 294.066 342.267C297.533 346.133 299.133 346.133 303 342L306.066 338.8L303.8 321.2C302.6 311.6 301.8 303.333 302.066 303.067C302.466 302.667 342.466 323.2 349.266 327.2C349.4 327.333 350.2 332.8 351.133 339.333C352.333 348.667 353.266 351.867 355.533 353.6C362.333 359.2 367.933 353.6 366.466 342.533L365.533 335.733L372.6 339.733C376.466 341.867 392.466 350.4 408.066 358.667C434.066 372.267 436.866 373.6 440.733 372.4C445.4 371.067 446.466 368.8 444.466 363.867C443.533 361.2 435.8 356.533 410.733 343.333C369.133 321.333 372.066 323.467 378.866 320C384.466 317.2 387.8 312 386.466 308.4C386.066 307.467 384.066 306 382.066 305.2C378.733 303.867 377.133 304.4 368.066 309.333L357.666 314.8L336.066 303.467C324.066 297.2 313.266 291.333 311.933 290.4C309.8 288.8 311.133 287.733 325.533 280.267C339.4 273.067 341.533 271.333 342.333 268C343.4 263.067 342.6 261.733 337.8 260.667C334.733 260 329.933 261.867 313.533 270.133L293 280.4L277.933 272.533L263 264.667L263.266 250.8L263.666 236.933L277.4 228.933L291.133 220.933L312.866 231.2L334.6 241.6L339 239.333C342.6 237.467 343.133 236.667 342.333 233.6C341 228.133 340.2 227.6 323.666 219.867C315.266 215.867 308.333 212.4 308.333 212C308.333 211.067 350.733 186.533 353.666 185.733C354.866 185.333 360.333 187.333 365.666 190C373.4 193.867 376.333 194.667 379.8 194C385.4 193.067 386.2 191.733 384.466 186.267C383.266 182.933 381.4 181.067 376.733 178.8L370.6 175.867L381.133 169.467C386.866 166 402.6 156.933 415.933 149.333C437.266 137.2 440.2 135.067 440.866 131.6C441.8 126.8 441.266 126 436.466 124.267C433 123.067 430.066 124.4 401.533 140.933C384.333 150.8 368.6 159.733 366.466 160.933L362.733 162.933L363.666 156.4C364.466 150.667 364.066 149.467 361.133 146.267C358.466 143.333 357.133 142.8 355.266 143.867C350.733 146.267 349.666 148.8 348.866 160.267L347.933 171.733L324.466 185.067C311.533 192.4 300.866 198.267 300.6 198.133C300.333 197.867 300.866 189.733 301.8 180L303.4 162.267L299.8 159.067L296.2 156L292.466 158.8C288.733 161.467 288.6 162 287 182.4C286.066 194 284.866 204.533 284.2 206.133C283.666 207.6 277.8 212 270.733 216C263.933 220 257.4 223.733 256.2 224.4C254.733 225.333 251 223.867 242.066 218.8C230.066 211.867 230.066 211.867 229.133 205.733C228.733 202.4 228.333 194.4 228.333 188V176.4L240.6 167.2C265.266 148.8 265.666 148.4 265.666 143.467C265.666 138.8 263.933 137.333 258.6 137.333C257 137.333 249.666 141.867 242.333 147.333C235 152.8 228.6 157.333 228.066 157.333C227.4 157.333 227 148.133 227 136.8C227 125.6 226.6 113.6 226.2 110.4L225.4 104.4L234.866 97.2001C240.066 93.3334 244.733 88.8 245.133 87.2001C246.466 81.8667 245.266 79.4667 240.733 78.5334C237.266 77.8667 235.4 78.4001 231.133 81.4667L225.933 85.3334L225.133 74.4001C224.733 68.2667 224.066 50.4001 223.666 34.6667C222.866 6.26672 222.866 6.00006 219.533 2.93338C215.4 -0.799927 214.866 -0.799927 211.133 3.20007Z" fill="#B3E2FF"/>
</svg>
