<svg width="451" height="521" viewBox="0 0 451 521" fill="none" xmlns="http://www.w3.org/2000/svg">
    <path d="M220.6 4.7334C216.6 8.73337 216.333 9.80005 216.333 18.2V27.1334L209.267 23.1334C202.733 19.4001 201.8 19.2667 196.867 20.6C194.067 21.5334 191.533 22.3334 191.267 22.4667C191 22.6 191.533 25.2667 192.333 28.4667C193.8 34.0667 194.467 34.7334 205.133 40.7334L216.333 47.1334V65.9334V84.6L212.867 82.3334C211 81.1334 203.4 76.4667 196.2 72.0667L182.867 64.0667L183.133 50.7334C183.267 37.4001 183.267 37.4001 179.133 33.2667L175 29.1334L170.333 33.6667C166.067 37.8 165.667 38.8667 165.667 46.0667V53.9334L159.533 50.3334C154.467 47.4001 152.333 46.8667 147.933 47.5334C140.6 48.7334 140.467 48.8667 142.067 55.1334C143.133 59.6667 144.6 61.4001 149.933 64.7334C153.4 66.8667 156.333 68.8667 156.333 69.1334C156.333 69.4001 153.4 71.1334 149.667 73.2667C144.333 76.3334 142.6 78.0667 141.133 82.6C139 88.8667 138.867 88.6 145.933 90.8667C150.6 92.4667 151.4 92.2 162.6 86.2L174.333 79.8L193.8 91.4001C204.333 97.8 213.8 103 214.733 103C215.933 103 216.333 109.133 216.333 127.933V153L200.2 162.2C187.4 169.533 183.8 171 182.867 169.533C182.2 168.467 177.4 160.333 172.2 151.533C163.133 135.8 162.6 135.267 157 133.8C153.8 133 150.867 132.333 150.6 132.333C150.2 132.333 149.267 135.133 148.467 138.467L146.867 144.467L156.6 161.4C161.933 170.733 166.333 179.133 166.333 180.067C166.333 180.867 159.267 185.8 150.467 190.867L134.733 199.933L114.467 188.2L94.3332 176.333L94.7332 151.933L95.1332 127.667L106.333 121C116.6 114.867 117.667 113.933 118.867 108.733C119.667 105.667 120.333 102.867 120.333 102.6C120.333 102.2 117.667 101.267 114.333 100.467C108.733 99.0001 107.933 99.2667 102.067 103L95.6665 106.867L94.8665 103.267C94.3332 101.267 93.9332 97.8 93.7998 95.5334C93.6665 92.8667 92.3332 90.2 89.6665 87.6667L85.6665 83.8L80.8665 88.4667C76.4665 92.7334 76.1998 93.5334 76.5998 100.067C76.8665 103.8 76.7332 107 76.3332 107C75.9332 107 72.7332 105.4 68.9998 103.533C62.9998 100.333 61.7998 100.2 56.7332 101.533C50.5998 103.267 50.3332 103.933 52.7332 110.733C54.0665 114.2 56.7332 116.333 65.6665 121.533L76.9998 127.933L77.3998 147.667L77.7998 167.4L74.7332 165.4C72.9998 164.333 65.7998 159.933 58.7332 155.8L45.6665 148.2V135.133C45.6665 122.2 45.6665 122.2 41.2665 117.933L36.8665 113.667L32.5998 118.067C28.8665 121.933 28.3332 123.267 28.3332 130.067C28.3332 134.2 28.0665 137.667 27.6665 137.667C27.2665 137.667 23.6665 135.8 19.7998 133.533C14.0665 130.333 11.5332 129.667 8.0665 130.333C0.73317 131.667 0.333169 132.333 1.93317 138.733C3.13317 143.667 4.19984 144.867 11.1332 148.6C15.5332 151 18.9998 153.4 18.9998 153.8C18.9998 154.333 17.3998 155.4 15.2665 156.2C7.93317 159.267 4.33317 163.267 3.93317 169C3.6665 174.2 3.79984 174.333 9.13317 175.4C14.1998 176.6 15.3998 176.2 25.3998 170.467C31.3998 167.133 36.5998 164.333 36.9998 164.333C37.3998 164.333 44.7332 168.333 53.1332 173.133C66.7332 181 68.1998 182.2 66.0665 183.667C59.9332 187.8 36.5998 200.333 35.1332 200.333C34.0665 200.333 28.8665 197.533 23.2665 194.2C14.1998 188.733 12.5998 188.2 7.39984 189C4.33317 189.4 1.39984 190.333 1.13317 190.867C0.733169 191.4 1.13317 194.2 1.79984 197.133C2.99984 201.667 4.33317 203.267 9.79984 206.333C13.3998 208.467 16.3332 210.6 16.3332 211C16.3332 211.4 13.3998 213.267 9.79984 215.267C5.13317 217.933 3.13317 219.933 2.59984 222.6C2.19984 224.733 1.53317 227.267 0.999836 228.467C0.333169 230.2 1.53317 231 6.33317 232.2C12.0665 233.667 12.9998 233.533 18.5998 230.333C21.9332 228.467 24.8665 227 25.1332 227C25.3998 227 25.6665 230.6 25.6665 234.867C25.6665 241.4 26.1998 243.533 29.1332 246.867C33.3998 251.933 34.8665 252.067 39.2665 247.267C42.3332 244.067 42.7332 242.2 43.3998 230.733C43.7998 223.533 44.4665 217.133 44.9998 216.467C45.3998 215.667 54.1998 210.467 64.4665 204.867C74.8665 199.133 83.5332 193.8 83.9332 192.867C84.3332 191.8 91.3998 195.267 104.733 203L125 214.733L125.4 234.2L125.8 253.667H104.6H83.5332L79.2665 258.067L74.9998 262.467L79.2665 266.6L83.6665 270.867L104.6 271.267L125.667 271.667V291L125.533 310.333L105.4 321.8C86.8665 332.467 85.1332 333.133 83.1332 331.133C81.9332 329.933 72.3332 324.2 61.9332 318.333L42.9998 307.8V295C42.9998 282.2 42.9998 282.2 38.5998 277.933L34.1998 273.667L29.9332 278.067C26.1998 281.933 25.6665 283.267 25.6665 290.067C25.6665 294.2 25.2665 297.667 24.8665 297.667C24.4665 297.667 21.5332 296.2 18.3332 294.333C12.9998 291.133 12.1998 291 6.4665 292.6C1.79984 293.8 0.466503 294.733 0.999836 296.333C1.53317 297.4 2.19984 300.067 2.59984 302.067C3.13317 304.867 5.13317 306.867 9.79984 309.4C13.3998 311.4 16.3332 313.267 16.3332 313.667C16.3332 314.067 13.3998 316.2 9.79984 318.333C4.33317 321.4 2.99984 323 1.79984 327.533C0.199836 333.8 0.599836 334.333 7.13317 336.067C11.5332 337.267 12.7332 336.867 22.8665 330.867C28.9998 327.267 34.3332 324.333 34.9998 324.333C35.7998 324.333 66.7332 341.133 68.0665 342.333C68.5998 342.867 45.5332 356.6 40.0665 359C36.8665 360.467 35.5332 360.067 25.6665 354.467C16.0665 348.867 14.1998 348.2 9.53317 349C3.2665 350.067 2.59984 351 3.79984 357.133C4.4665 361.133 5.93317 362.733 12.0665 366.6L19.3998 371.4L11.5332 375.8C4.73317 379.667 3.39984 381 2.0665 385.8C1.13317 388.867 0.733169 391.8 0.999836 392.467C1.39984 393 4.33317 393.933 7.39984 394.333C12.3332 395.133 14.1998 394.6 20.1998 391.133C23.9332 388.867 27.3998 387 27.6665 387C28.0665 387 28.3332 390.467 28.3332 394.733C28.3332 401.8 28.7332 402.867 32.9998 407L37.6665 411.533L41.6665 407.667C45.3998 404.067 45.5332 403.533 45.9332 389.933L46.3332 375.933L62.0665 366.867L77.7998 357.667L77.3998 377.267L76.9998 396.867L65.7998 403.133C53.9332 409.8 53.1332 410.6 51.6665 417.267C50.8665 421.267 50.9998 421.533 56.3332 423.133C61.3998 424.733 62.4665 424.467 69.1332 421.267C73.1332 419.267 76.4665 417.667 76.7332 417.667C76.8665 417.667 76.7332 420.867 76.5998 424.867C76.1998 431.267 76.4665 432.467 80.4665 436.867L84.7332 441.8L89.9332 436.867C94.5998 432.2 94.9998 431.133 94.9998 424.733V417.667L101.533 421.8C106.867 425 109.133 425.667 112.733 425C120.333 423.533 120.867 422.733 118.867 416.2C117.133 411 115.8 409.667 106.067 403.667L95.1332 397L94.7332 372.6L94.3332 348.2L114.067 336.867C124.867 330.6 134.467 325.667 135.4 325.933C137.933 326.6 167 343.533 167 344.467C167 344.867 162.467 353 157 362.733L147 380.2L148.467 386.333C149.267 389.667 150.2 392.333 150.6 392.333C150.867 392.333 153.8 391.667 157 390.867C162.6 389.4 163 389 173.133 371.533C178.867 361.667 183.8 353.667 184.2 353.8C184.6 353.8 191.933 357.933 200.333 362.867L215.667 371.8L216.067 394.733C216.333 411.8 215.933 417.667 214.867 417.667C213.933 417.667 204.6 422.733 193.933 429C183.4 435.267 174.467 440.333 174.2 440.333C173.8 440.333 168.867 437.667 163 434.333C151.4 427.8 151.267 427.667 144.067 429.667C139.267 431 139.267 431.133 140.6 436.067C142.333 442.333 144.467 444.733 151 447.667C153.933 449 156.333 450.467 156.333 450.867C156.333 451.267 153.4 453.267 149.933 455.267C144.333 458.467 143.267 459.667 142.067 465L140.733 471L146.2 472.467C151.133 473.8 152.2 473.667 158.067 470.467C161.533 468.6 164.6 467 165 467C165.4 467 165.667 470.467 165.667 474.733C165.667 481.8 166.067 482.867 170.333 487L175 491.533L179.8 486.867L184.6 482.333L184.067 469L183.667 455.8L193.667 449.667C199.133 446.2 206.467 441.8 210.067 439.8L216.333 436.067V454.6V473L205 479.4C194.867 485.133 193.533 486.333 192.333 491.133C191.533 494.067 191.267 496.867 191.667 497.533C192.067 498.2 194.733 499.133 197.667 499.667C201.933 500.333 204.2 499.933 209.133 497.133C212.6 495.267 215.533 493.667 215.8 493.667C216.067 493.667 216.333 497.8 216.333 502.733C216.333 511.267 216.6 512.067 220.733 516.067L225 520.2L230.067 515.533C234.733 511 235 510.467 235 502.2V493.533L242.067 497.4C248.067 500.733 249.667 501.133 253.667 500.067C260.067 498.333 260.467 497.8 258.733 491.267C257.4 486.067 256.6 485.267 246.2 479.267L235 473V454.6V436.067L239.4 438.733C241.667 440.2 249 444.6 255.533 448.6L267.4 455.667L267.133 468.6L266.867 481.533L271.267 486.333L275.667 491L280.733 486.467C285.267 482.2 285.667 481.267 285.667 474.333V466.733L291.533 470.2C298.2 474.067 299 474.2 305.8 472.333L310.6 471L309.267 464.867C308.067 459.667 307 458.467 301.4 455.267C297.933 453.267 295 451.267 295 450.867C295 450.333 296.6 449.267 298.733 448.467C306.067 445.4 309.667 441.4 310.067 435.667C310.333 430.467 310.2 430.333 304.867 429.267C299.8 428.067 298.6 428.467 288.467 434.333C282.333 437.667 276.6 440.2 275.667 439.933C274.733 439.533 266.067 434.333 256.467 428.467C246.733 422.467 237.933 417.667 236.867 417.667C235.267 417.667 235 413.8 235 394.6L235.133 371.667L251.133 362.467C259.933 357.533 267.267 353.533 267.533 353.8C267.8 354.067 272.333 362.067 277.8 371.533C287.667 388.733 289.133 390.2 297.667 391.933C300.733 392.467 301.267 391.933 302.733 386.333L304.333 380.2L294.333 362.867C288.867 353.267 284.333 345 284.333 344.333C284.333 342.867 315.133 325.4 316.867 325.933C321.267 327.133 357.533 349 356.6 349.933C355.933 350.6 355.667 361.4 356.067 374.067L356.6 397L345.133 403.667C335.4 409.4 333.533 411 332.333 415C330.333 422.067 330.6 422.6 336.6 424.067C341.8 425.4 342.867 425.267 349.267 421.533L356.333 417.533V425.533C356.333 433.133 356.6 433.667 361 437.133L365.8 440.733L370.467 436.2C375 431.8 375.267 431.4 374.467 424.6C374.067 420.867 373.933 417.667 374.333 417.667C374.733 417.667 378.2 419.4 381.8 421.533C388.467 425.267 388.733 425.4 394.467 423.4C397.667 422.333 400.333 421.267 400.333 421.267C400.333 421.133 399.533 418.467 398.6 415.267C397 409.933 395.933 409 385.533 403.133L374.333 396.867L373.933 377.933C373.8 367.533 373.933 359 374.333 359C374.6 359 381.8 363 390.2 367.8L405.4 376.467L405.533 390.067C405.8 403.133 405.933 403.8 409.667 407.667L413.667 411.533L418.333 407C422.6 402.867 423 401.8 423 394.733V386.867L431.4 391.4C439.133 395.667 439.933 395.8 445 394.333C450.733 392.6 450.733 392.6 449.267 385.4C448.333 381.133 447.267 379.933 440.333 376.2C435.933 373.933 432.333 371.533 432.333 371.133C432.333 370.733 435.4 368.733 439 366.733C444.467 363.667 445.8 362.2 447 357.667C447.8 354.733 448.067 351.8 447.667 351.133C447.267 350.467 444.6 349.533 441.667 349C436.867 348.2 435.133 348.733 425.933 354.2C420.067 357.533 414.867 360.333 414.067 360.333C412.6 360.333 385.933 345.133 384.067 343.267C382.867 342.067 412.867 324.333 416.067 324.333C416.867 324.333 422.2 327.267 427.933 330.867C438.333 337.267 438.6 337.4 444.733 335.933C449.4 334.867 450.867 334.067 450.467 332.467C450.067 331.267 449.533 328.467 449 326.2C448.467 323.133 446.6 321.267 441.667 318.333C437.933 316.2 435 314.067 435 313.667C435 313.267 437.667 311.533 440.867 309.8C444.867 307.8 447.267 305.4 448.2 302.6C450.733 295.667 450.067 294.2 444.2 292.467C439.267 291 438.333 291.133 432.733 294.2C429.4 296.067 426.467 297.667 426.2 297.667C425.933 297.667 425.667 294.2 425.667 289.933C425.667 282.867 425.267 281.8 421 277.667L416.333 273.133L412.333 277C408.733 280.467 408.333 281.8 408.2 288.867C408.2 293.4 407.667 299.667 407.267 303L406.333 308.867L387.667 319.4C377.4 325.133 368.333 330.6 367.533 331.667C366.333 333.267 362.467 331.4 345.933 321.933L325.8 310.333L325.667 291.267V272.333H345.667H365.533L370.333 268.2C372.867 265.933 375 263.267 375 262.467C375 261.533 373.4 259.267 371.267 257.267C367.667 253.8 367.4 253.8 346.6 253.533L325.533 253.4L325.933 233.933L326.333 214.333L346.2 202.867C365.267 191.667 366.2 191.267 368.2 193.667C369.4 195 378.467 200.6 388.333 206.067L406.333 216.067L407.667 230.2C408.867 242.867 409.4 244.6 412.6 247.933L416.333 251.533L421 247C425.267 242.867 425.667 241.8 425.667 234.6V226.867L432.2 230.467C438.333 233.933 438.867 234.067 444.867 232.333C449.667 231 451 230.2 450.333 228.467C449.8 227.267 449.133 224.733 448.733 222.6C448.2 219.933 446.2 218.067 441.533 215.4C437.933 213.533 435 211.533 435 211C435 210.467 437.933 208.2 441.4 206.067C446.733 202.733 448.2 201 449.267 196.467C450.067 193.533 450.2 190.733 449.667 190.333C449 189.933 445.933 189.267 442.733 189C437.667 188.333 435.933 188.867 426.467 194.733L416.067 201.267L400.067 192.2C391.267 187.267 383.8 182.867 383.4 182.6C382.6 181.667 411.933 164.333 414.067 164.333C415 164.333 420.467 167.267 426.2 170.867C436.6 177.267 436.867 177.267 442.2 175.8C447.533 174.2 447.667 173.933 447.4 168.867C447 163.267 443.4 159.267 436.067 156.2C433.933 155.4 432.333 154.333 432.333 153.8C432.333 153.4 435.933 151 440.2 148.467C447.133 144.467 448.067 143.4 449.267 138.2L450.6 132.333L445.8 131C439 129.133 438.6 129.267 431 133.667C427.267 135.8 423.933 137.667 423.667 137.667C423.267 137.667 423 134.2 423 129.933C423 122.867 422.6 121.8 418.333 117.667L413.667 113.133L409.267 117.4L405 121.667L405.4 135L405.667 148.2L396.067 153.8C390.733 156.733 383.533 161 379.933 163.133L373.533 167L373.933 147.4L374.333 127.933L385.667 121.533C395.933 115.667 397 114.6 398.6 109.4C400.467 103 399.933 102.333 392.867 101C389.533 100.467 386.733 101.133 381.8 103.667C378.067 105.533 374.733 107 374.333 107C373.933 107 373.667 103.533 373.667 99.2667C373.667 92.3334 373.267 91.0001 369.667 87.6667L365.667 83.8L361 88.3334C356.867 92.3334 356.333 93.5334 356.333 100.067V107.133L349.267 103.133C342.867 99.4001 341.8 99.2667 336.6 100.6C330.6 102.067 330.333 102.6 332.333 109.667C333.533 113.667 335.4 115.267 345 121L356.467 127.667L356.067 150.333C355.933 162.733 356.2 173.667 356.733 174.6C357.267 175.533 350.733 180.067 337.8 187.533C326.867 193.8 317.267 199 316.333 199C313.8 199 284.333 181.533 284.333 180.067C284.333 179.4 288.867 171.133 294.2 161.667C303.933 145.133 304.2 144.467 302.867 139.533C300.867 132.467 300.467 132.2 293.933 133.933C288.467 135.267 288.067 135.8 278.067 153.133C270.333 166.333 267.133 170.867 265.667 170.333C264.6 169.8 257.267 165.8 249.4 161.267L235.133 153L235 127.933C235 110.733 235.4 103 236.467 103C237.267 103 246.333 97.9334 256.6 91.6667C266.867 85.4001 275.933 80.3334 276.6 80.3334C277.4 80.3334 282.867 83.1334 288.867 86.4667C299.4 92.4667 299.8 92.6 305.667 91.1334C308.867 90.2 311.667 89.4001 311.8 89.2667C312.067 89.1334 311.4 86.3334 310.6 83.1334C309.267 78.0667 308.067 76.7334 301.933 73.2667L294.867 69.4001L301.4 64.8667C306.333 61.6667 308.2 59.4001 308.867 56.2C310.2 49.0001 309.933 48.6 303.667 47.6667C298.733 46.8667 296.733 47.2667 291.8 50.2L285.933 53.6667L285 45.1334C284.333 38.2 283.533 36.0667 280.2 32.8667L276.333 29.1334L271.533 33.8L266.733 38.3334L267.4 51.4001L268.067 64.3334L251.533 74.2L235 84.0667V65.6667V47.2667L246.2 40.8667C256.867 34.7334 257.533 34.0667 259 28.6C259.8 25.2667 260.333 22.6 260.067 22.4667C259.8 22.3334 257.267 21.5334 254.333 20.6C249.533 19.1334 248.6 19.4001 242.067 23.0001C238.2 25.2667 234.867 27.0001 234.733 27.0001C234.467 27.0001 234.2 22.6 233.933 17.2667C233.533 9.00006 233 7.13336 229.933 3.93335C228.067 1.93335 226.067 0.333374 225.667 0.333374C225.267 0.333374 223 2.33337 220.6 4.7334ZM216.067 213.667L215.667 226.867L205 208.2C199.133 197.933 194.333 188.867 194.333 188.2C194.333 187.533 199.133 184.067 205 180.6L215.667 174.2L216.067 187.267C216.2 194.467 216.2 206.333 216.067 213.667ZM247.4 181.667C253 184.867 257.533 187.933 257.4 188.333C255.667 192.067 235.533 226.867 235 227C234.6 227 234.467 215.267 234.733 200.867C235 186.6 235.533 175 236.067 175.267C236.6 175.533 241.667 178.333 247.4 181.667ZM188.333 216.6C194.467 227.133 199.667 236.2 200.067 237C200.6 237.667 199.4 237.4 197.667 236.2C195.8 235.133 185.133 228.867 173.933 222.333L153.4 210.6L159.267 207C172.2 199.133 174.467 197.933 175.8 197.8C176.733 197.667 182.333 206.2 188.333 216.6ZM285.933 203.8C294.6 208.867 296.2 210.333 294.733 211.667C292.6 213.667 251 237.8 251 237C251 235.4 273.667 197.667 274.6 197.667C275.133 197.667 280.2 200.467 285.933 203.8ZM306.467 251.8C305.933 253.133 300.333 253.533 283 253.4C270.467 253.267 260.733 252.867 261.267 252.333C261.8 251.8 272.2 245.533 284.333 238.467L306.333 225.667L306.733 237.933C306.867 244.6 306.867 250.867 306.467 251.8ZM168.6 239.8C180.867 246.867 191 252.867 191 253.267C191 253.533 180.467 253.667 167.667 253.533L144.333 253.267V240.2C144.333 232.867 144.733 227 145.267 227C145.8 227 156.2 232.733 168.6 239.8ZM191 271.533C191 271.8 181.8 277.4 170.733 283.8C159.533 290.2 149 296.333 147.4 297.4L144.333 299.267V285.8V272.333L166.733 271.933C179 271.8 189.4 271.4 190.067 271.267C190.6 271.133 191 271.267 191 271.533ZM306.733 286.067L306.333 298.867L284.067 285.933L261.8 273L283.4 272.333C295.267 271.933 305.533 272.067 306.067 272.467C306.6 272.867 306.867 279 306.733 286.067ZM199.933 287.933C189.267 307 177.133 327 176.333 327C175.8 327 170.467 324.2 164.467 320.733C157.533 316.6 154.333 314.067 155.4 313.4C158.733 311.267 199.667 287.267 200.067 287.133C200.333 287 200.2 287.4 199.933 287.933ZM275 301.267L297.667 314.2L286.6 320.6C280.6 324.067 275.133 326.867 274.467 326.6C273.133 326.2 250.733 288.333 251.8 288.333C252.067 288.333 262.6 294.2 275 301.267ZM216.333 325V350.867L206.067 344.867C200.333 341.533 195.133 338.2 194.467 337.667C193.667 336.867 214.6 299.133 216.067 299C216.2 299 216.333 310.733 216.333 325ZM246.867 318.067C252.867 328.2 257.667 336.6 257.667 337C257.667 337.533 236.733 349.667 235.667 349.667C235.267 349.667 235 338.2 235 324.067C235 310.067 235.267 298.867 235.533 299.133C235.8 299.4 240.867 307.933 246.867 318.067Z" fill="#B3E2FF"/>
</svg>
