<svg width="410" height="473" viewBox="0 0 410 473" fill="none" xmlns="http://www.w3.org/2000/svg">
    <path d="M202.934 1.93326C202.4 2.33325 202 5.7999 202 9.3999C202 15.1332 201.734 15.7999 199.734 14.9999C189.734 10.7332 188.267 14.8666 197.734 20.3333C201.734 22.7332 202 23.3999 202 29.9333C202 40.5999 197.2 38.5999 196.4 27.6666C195.867 20.3333 192.267 19.1332 191.6 25.9333C191.2 30.1999 188.4 31.9333 186.667 28.9999C185.334 26.8666 182 27.3999 181.067 29.7999C180.534 31.2666 181.334 32.8666 183.467 34.4666L186.667 36.8666L183.734 38.9999C180.267 41.3999 179.734 44.7332 182.534 45.7999C183.467 46.1999 186.534 45.1332 189.2 43.5332C193.6 40.9999 194.267 40.8666 197.2 42.7332C201.067 45.2666 202 49.9333 202 65.1332C202 77.6666 201.467 78.4666 196 74.8666C193.067 72.9999 192.667 71.7999 192.667 64.4666C192.667 55.6666 190.8 51.9333 187.734 54.4666C186.8 55.3999 186 58.7332 186 62.4666V69.1332L182 66.9999C178.134 64.9999 178.134 64.8666 177.734 51.9333C177.467 41.5332 176.934 38.9999 175.334 38.9999C174.134 38.9999 173.2 40.4666 172.934 42.9999C172.8 45.1332 172.267 50.1999 171.867 53.9333L171.2 60.9999L168 58.8666C165.6 57.2666 164.667 55.3999 164.4 51.2666C164.134 46.7332 163.467 45.6666 161.334 45.6666C159.467 45.6666 158.534 46.7332 158 49.2666C157.467 52.1999 156.934 52.5999 155.334 51.6666C154.267 50.9999 152.267 50.3333 151.067 50.3333C147.734 50.3333 148 55.2666 151.334 56.9999C153.867 58.3333 153.867 58.4666 151.334 60.9999C146 66.3333 150.134 68.9999 157.2 64.8666C161.467 62.3333 161.734 62.3333 164.667 64.7332L167.734 67.2666L160.267 71.5332C151.867 76.3333 148.667 80.1999 152.134 81.5332C153.334 82.0666 158.667 79.9333 164.667 76.7332C174.267 71.5332 175.334 71.2666 178.934 72.8666L182.667 74.5999L176.934 77.9333C173.467 79.9333 171.334 82.1999 171.334 83.7999C171.334 87.2666 174 86.9999 182.534 82.7332L189.734 79.2666L195.867 82.8666L202 86.4666V96.4666C202 105.4 201.734 106.467 199.734 106.067C197.867 105.667 197.334 104.2 197.2 99.9333C197.067 93.1332 195.067 90.4666 192 92.9999C190.534 94.1999 190.134 95.9333 190.667 97.9333C191.467 101.4 190.4 101.8 186.934 98.9999C185.467 98.0666 183.6 97.5332 182.534 97.9333C179.467 99.1332 180.4 103.133 184.267 104.867L188 106.6L184.267 108.467C180.134 110.733 179.2 115.667 183.067 115.667C184.267 115.667 187.2 114.467 189.467 113.133C193.467 110.733 193.867 110.6 197.467 112.867C201.2 115.133 201.334 115.533 201.734 128.067C202 135.267 201.867 141 201.334 141C200.934 141 199.334 140.333 197.867 139.667C195.734 138.467 195.334 136.733 195.334 129.667C195.334 125 194.667 120.733 194 120.333C191.2 118.6 188.667 122.6 188.667 128.467C188.667 133 188.267 134.067 186.667 133.533C185.334 133 184.667 130.867 184.667 127.667C184.667 122.6 181.867 118.733 179.334 120.333C178.667 120.733 178 122.6 178 124.467C178 127.667 176.134 128.733 174.667 126.333C173.6 124.6 169.067 124.6 168 126.333C167.6 127 168.667 129.133 170.534 131C173.734 134.2 173.734 134.333 171.2 135.667C168.267 137.4 167.867 140.733 170.534 141.8C171.6 142.2 174.267 141.533 176.534 140.2C179.6 138.333 181.2 138.2 183.6 139.267C186.534 140.6 186.534 140.733 181.2 143.4C176.534 145.8 174 148.467 174 151.133C174 152.733 180.134 151.267 186.4 148.2C193.2 144.867 193.734 144.733 196.934 146.867C200.8 149.4 202 153.8 202 165.533V173.667L191.067 184.6L180 195.533L166.267 199L152.4 202.467L141.867 196.2C131.6 190.2 131.334 189.933 131.334 184.867C131.334 179.933 131.734 179.4 138.667 175.533C143.6 172.867 146 170.6 146 168.867C146 165.533 142.134 165.533 136.134 169.133L131.334 171.933V169.133C131.334 167.267 132.8 165.4 135.2 163.933C139.734 161.4 141.334 157.533 138.4 156.467C137.334 156.067 135.334 156.333 133.867 157C131.734 158.2 131.334 157.933 131.334 155.267C131.334 151 128.4 148.467 126.267 150.6C125.334 151.533 124.667 153.667 124.667 155.267C124.667 157.933 124.267 158.2 122.134 157C119.067 155.4 115.334 156.6 115.334 159C115.334 159.933 117.467 162.067 120 163.667C122.8 165.4 124.667 167.667 124.667 169.267C124.667 171.933 124.667 171.933 119.867 169.133C113.867 165.533 110 165.533 110 168.867C110 170.6 112.4 172.867 117.334 175.533C122.4 178.333 124.667 180.467 124.667 182.333C124.667 183.8 124.134 185 123.6 185C122.934 185 117.734 182.2 111.867 178.6C102.8 173.267 101.334 171.8 100.934 168.333C100.534 164.733 101.2 163.8 106 161.133C109.467 159.133 111.334 157.267 111.334 155.4C111.334 152.6 108.934 152.467 102.8 155C100.667 155.933 100.4 155.667 100.934 152.6C101.867 148.067 98.9337 145.267 96.0003 147.667C94.667 148.733 94.267 150.467 94.9337 152.733C95.6003 155.667 95.467 155.933 93.2003 155C87.067 152.467 84.667 152.6 84.667 155.4C84.667 157.267 86.4003 159.133 89.7337 161C94.5337 163.667 96.8003 167.8 93.467 167.533C91.2003 167.4 76.0003 157.533 76.4003 156.6C76.5337 156.067 76.667 152.733 76.667 149.133C76.667 143.133 76.9337 142.467 80.667 141C89.7337 137.267 94.8003 130.333 88.5337 130.333C86.9337 130.333 83.6003 131.533 81.2003 133.133L76.667 135.933V131.4C76.667 127.267 77.3337 126.6 86.0003 121.933C94.8003 117.133 98.9337 113.133 97.067 111.133C95.3337 109.533 92.267 110.467 84.5337 115L76.667 119.533V115.133C76.667 111.8 77.467 110.467 79.867 109.267C81.7337 108.467 83.867 106.6 84.5337 105.133C85.7337 103 85.467 102.333 83.3337 101.667C81.7337 101.133 79.7337 101.533 78.667 102.333C76.9337 103.667 76.667 103.4 76.667 100.6C76.667 96.3333 73.067 92.9999 71.2003 95.7999C70.5337 96.8666 70.0003 98.9999 70.0003 100.733C70.0003 103.4 69.6003 103.533 67.2003 102.333C65.7337 101.4 63.6003 101.133 62.5337 101.533C59.3337 102.733 60.5337 105.933 65.3337 108.867C69.067 111 70.0003 112.467 70.0003 115.667C70.0003 117.8 69.7337 119.667 69.467 119.667C69.067 119.667 65.3337 117.533 61.067 115C52.4003 109.8 48.667 109.133 48.667 112.867C48.667 114.467 52.0003 117.267 59.3337 121.533C68.9337 127 70.0003 128.067 70.0003 131.667C70.0003 136.467 70.0003 136.467 64.4003 133C58.9337 129.667 53.3337 129.4 54.5337 132.467C54.9337 133.667 55.3337 134.733 55.3337 135C55.3337 135.267 58.667 137.4 62.667 139.667C69.3337 143.533 70.0003 144.333 70.0003 148.467C70.0003 151 69.467 153 68.667 153C68.0003 153 61.467 149.4 54.0003 144.867C42.0003 137.667 40.667 136.467 40.667 132.867C40.667 129.8 41.7337 128.333 46.0003 125.667C53.867 120.733 52.5337 115.133 44.4003 119.267C40.8003 121 40.667 121 40.667 117.133C40.667 112.467 37.867 109.667 35.6003 111.933C34.667 112.867 34.0003 115.267 34.0003 117.4C34.0003 120.867 33.867 121 31.2003 119.267C27.7337 116.733 23.467 117.8 24.267 120.867C24.5337 122.067 26.9337 124.2 29.467 125.667C32.267 127.133 34.0003 129.133 34.0003 130.733C34.0003 133.133 33.7337 133.133 28.4003 129.933C23.467 127 22.667 125.933 22.267 121.533C21.467 112.867 16.667 110.2 16.667 118.467C16.667 123 16.0003 123.133 10.667 119.667C5.86699 116.467 0.666992 116.2 0.666992 119C0.666992 120.067 3.33366 122.733 6.66699 124.733L12.8003 128.467L9.33366 130.333C5.86699 132.2 4.93366 134.867 7.33366 136.333C8.13366 136.867 10.9337 135.933 13.467 134.467L18.1337 131.667L24.1337 135.133C28.4003 137.667 29.7337 139.133 28.8003 140.067C27.7337 141.133 25.867 140.6 22.1337 138.6C17.3337 135.933 12.667 135.8 12.667 138.333C12.667 139.8 16.1337 143.267 18.267 143.933C19.3337 144.333 18.5337 145.8 16.0003 148.067C12.8003 150.733 12.4003 151.8 13.6003 153.133C14.9337 154.467 16.0003 154.467 18.667 153.267C23.2003 151.133 23.3337 151.133 23.3337 154.867C23.3337 156.6 24.1337 158.6 25.067 159.533C27.867 161.8 30.0003 158.6 30.0003 152.2C30.0003 147.267 30.5337 146.467 33.867 145C37.6003 143.533 38.8003 143.933 51.2003 151C58.667 155.133 64.667 159 64.667 159.533C64.667 159.933 63.067 161.4 61.067 162.6C57.6003 164.733 57.2003 164.6 50.0003 160.6C45.467 158.2 41.6003 156.867 40.267 157.4C36.9337 158.6 38.9337 162.067 44.8003 165.133C47.7337 166.6 50.0003 167.933 50.0003 168.333C50.0003 168.6 48.4003 169.8 46.4003 170.733C43.2003 172.467 42.267 172.2 33.067 166.867C23.467 161.133 20.667 160.2 18.9337 161.8C17.2003 163.667 20.9337 167.533 28.267 171.667L35.867 175.933L32.8003 178.467C29.7337 181 29.6003 181 25.2003 178.467C20.5337 175.667 16.667 175.933 16.667 179.133C16.667 180.2 17.867 181.667 19.2003 182.6C21.7337 184.2 21.7337 184.333 18.4003 187.4C13.867 191.533 16.0003 194.333 22.0003 192.067C25.7337 190.6 26.0003 190.733 26.0003 193.667C26.0003 195.4 26.667 197.267 27.3337 197.667C29.7337 199.133 32.667 195.533 32.667 191C32.667 187.8 33.6003 186.067 36.0003 184.467L39.3337 182.333V192.2C39.3337 198.733 39.867 202.467 41.067 203.533C44.5337 206.333 46.0003 202.333 46.0003 190.067C46.0003 178.467 46.0003 178.333 50.0003 176.333L54.0003 174.2V180.867C54.0003 184.6 54.8003 187.933 55.7337 188.867C58.8003 191.4 60.667 187.667 60.667 178.733V170.467L66.667 167L72.5337 163.533L80.9337 168.333C91.2003 174.333 91.067 174.2 88.8003 175.667C87.6003 176.333 85.467 175.8 82.8003 174.2C75.2003 169.533 70.0003 171.933 75.867 177.4L79.2003 180.6L76.0003 183.4C74.1337 185 72.667 186.867 72.667 187.667C72.667 189.4 77.467 189.4 80.8003 187.667C82.9337 186.467 83.3337 186.733 83.3337 189C83.3337 190.6 84.0003 193 84.8003 194.467C87.067 198.733 90.0003 195.133 90.0003 188.2C90.0003 183.133 90.5337 182.2 94.0003 180.333C97.867 178.333 98.267 178.467 108.667 184.467C114.534 187.933 119.2 191.4 118.934 192.2C118 195 114.134 194.467 107.867 190.6C101.2 186.333 98.0003 186.333 98.0003 190.467C98.0003 192.067 100 193.933 103.734 195.8C109.067 198.6 109.2 198.733 106.4 200.067C104.134 201 102.534 200.867 100.134 199.133C93.3337 194.733 88.0003 198.067 93.867 203.133C96.1337 205.133 96.1337 205.4 92.9337 208.6C89.867 211.667 89.867 212.067 91.7337 213.267C93.2003 213.933 94.9337 213.933 96.5337 213C100.134 211.133 100.667 211.267 100.667 213.933C100.667 215.267 101.2 217.133 101.867 218.2C104 221.533 107.334 217.4 107.334 211.667C107.334 208.333 108 206.333 109.467 205.8C112.934 204.467 113.067 204.733 112.4 211C111.6 217.8 113.867 221.267 117.334 218.333C118.667 217.133 119.334 214.067 119.334 208.467C119.334 200.733 119.6 200.2 123.467 198.067L127.467 195.667L137.867 201.667L148.267 207.667L152.4 221.4C154.8 228.867 156.667 235.933 156.667 236.867C156.667 237.8 154.8 244.733 152.534 252.2L148.4 265.8L138.534 271.4C133.2 274.467 128.134 277 127.2 277C126.4 277 124 275.8 122 274.333C118.534 271.933 118.134 270.6 117.734 263.267C117.467 257 116.8 255 115.334 255C113.867 255 113.2 256.733 112.934 261.4C112.534 266.6 112.134 267.8 110.267 267.4C108.667 267.133 107.734 265.133 107.2 261.4C106.8 258.2 106.134 255.267 105.6 254.867C103.867 253.133 100.667 255.667 100.667 259C100.667 261.933 100.267 262.2 98.1337 261C94.8003 259.267 90.0003 259.267 90.0003 261C90.0003 261.8 91.467 263.8 93.2003 265.4C96.4003 268.333 96.4003 268.467 93.867 270.067C92.5337 271 91.3337 272.6 91.3337 273.667C91.3337 276.333 96.5337 276.2 100.267 273.667C102.934 271.8 107.334 272.2 107.334 274.2C107.334 274.867 105.334 276.333 102.8 277.667C97.7337 280.467 95.867 284.333 98.9337 285.667C100.134 286.067 104.267 284.6 108.267 282.333C114.534 278.733 115.734 278.467 118 280.067C120.267 281.667 119.467 282.333 109.2 288.2C98.8003 294.2 97.7337 294.6 94.0003 293C90.4003 291.533 90.0003 290.733 90.0003 284.867C90.0003 281.4 89.3337 278.067 88.667 277.667C86.5337 276.333 83.3337 279.667 83.3337 283.133C83.3337 286.333 81.467 287.4 80.0003 285C78.9337 283.267 74.4003 283.267 73.3337 285C72.9337 285.667 74.0003 287.667 75.867 289.4L79.2003 292.6L76.0003 295.4C74.1337 297 72.667 298.867 72.667 299.533C72.667 301.933 77.3337 301.667 82.267 299C86.0003 297 87.6003 296.733 88.667 297.8C89.867 299 88.0003 300.6 81.3337 304.467L72.267 309.4L66.5337 306.2L60.667 303V294.867C60.667 289.267 60.0003 286.2 58.667 285C55.6003 282.467 54.0003 284.733 54.0003 291.8C54.0003 295.4 53.7337 298.333 53.3337 298.333C52.9337 298.333 51.067 297.4 49.3337 296.2C46.267 294.2 46.0003 293.267 46.0003 282.333C46.0003 274.333 45.467 270.2 44.267 269.133C40.9337 266.467 39.3337 270.333 39.3337 280.6V290.467L35.467 288.333C32.1337 286.733 31.467 285.4 31.067 280.733C30.5337 274.067 26.9337 272.6 26.267 278.6C25.867 282.333 24.1337 283.4 22.667 281C21.6003 279.267 17.067 279.267 16.0003 281C15.6003 281.667 16.667 283.8 18.4003 285.533C21.3337 288.467 21.467 288.733 19.067 290.2C13.6003 293.533 17.7337 298.067 23.467 294.867C27.6003 292.6 30.267 292.6 33.3337 294.733C35.467 296.467 35.2003 296.867 28.4003 300.733C19.2003 306.067 16.9337 308.467 19.2003 310.733C20.4003 311.933 23.2003 311.133 31.7337 306.6C41.7337 301.267 42.9337 300.867 46.4003 302.467L50.1337 304.2L45.2003 307.133C38.1337 311.4 36.1337 315.133 40.4003 315.933C41.6003 316.2 45.6003 314.733 49.067 312.733C56.5337 308.333 57.6003 308.2 61.7337 311.4L64.667 313.667L51.067 321.8C38.0003 329.533 37.2003 329.933 33.7337 328.067C30.5337 326.467 30.0003 325.4 30.0003 320.467C30.0003 314.6 27.467 310.6 24.667 312.333C24.0003 312.733 23.3337 315 23.3337 317.267C23.3337 320.6 22.9337 321.133 21.067 320.333C13.7337 317.267 9.33366 321.8 16.1337 325.4L19.7337 327.267L16.267 329.667C8.93366 334.333 13.7337 338.6 21.3337 334.2C24.5337 332.333 26.5337 331.8 28.1337 332.733C29.867 333.667 29.2003 334.6 24.1337 337.533L18.0003 341.133L12.9337 338.467C9.46699 336.733 7.20033 336.333 5.86699 337.133C4.40033 338.2 4.66699 339 7.86699 341.533L11.6003 344.6L6.13366 347.8C2.93366 349.533 0.666992 351.8 0.666992 353.267C0.666992 356.333 3.46699 356.333 10.0003 353L15.2003 350.333L15.6003 354.733C16.267 361.667 19.867 360.333 20.4003 352.867C20.8003 347 21.067 346.467 27.3337 343.133C32.667 340.2 34.0003 339.933 34.0003 341.533C34.0003 342.733 31.6003 345.133 28.5337 347C20.5337 352.067 23.067 357.4 31.7337 353.667C33.467 352.867 34.0003 353.4 34.0003 356.067C34.0003 360.2 36.9337 362.867 39.067 360.733C40.0003 359.8 40.667 357.8 40.667 356.067C40.667 352.6 41.067 352.467 44.667 354.333C46.0003 355 48.0003 355.267 49.067 354.867C52.267 353.667 50.1337 349.533 45.2003 346.867C41.467 344.867 40.667 343.667 40.667 340.067C40.667 335.267 41.7337 334.467 59.7337 324.467L68.667 319.4V324.6C68.667 329.267 68.1337 329.933 61.867 333.4C54.667 337.533 52.5337 340.6 55.467 342.467C56.667 343.133 59.3337 342.467 62.9337 340.333L68.667 337.133V341.4C68.667 345.4 67.867 346.2 58.4003 351.667C48.1337 357.667 44.9337 361.667 49.6003 362.6C50.9337 362.867 55.3337 361.133 59.3337 358.733C63.3337 356.333 67.067 354.333 67.7337 354.333C68.267 354.333 68.667 356.067 68.667 358.333C68.667 361.267 67.7337 362.733 64.8003 364.2C61.467 365.933 59.3337 368.733 59.3337 371.267C59.3337 371.667 61.467 371.667 64.0003 371.267C67.867 370.6 68.667 370.867 68.667 372.867C68.667 375.8 72.0003 378.867 74.0003 377.667C74.667 377.267 75.3337 375.4 75.3337 373.667C75.3337 370.733 75.7337 370.6 80.1337 371.267C84.267 371.933 84.9337 371.8 84.4003 369.533C84.1337 368.2 82.0003 365.8 79.7337 364.333C76.667 362.467 75.467 360.6 75.3337 357.933C75.3337 355.933 75.7337 354.333 76.1337 354.333C76.5337 354.333 80.667 356.467 85.2003 359C90.5337 361.933 94.0003 363.133 95.2003 362.467C98.5337 360.333 95.7337 357.267 85.467 351.4C76.1337 346.067 75.467 345.267 75.3337 341.267V336.867L81.067 340.067C84.1337 341.933 87.467 343.133 88.4003 342.733C92.0003 341.4 89.7337 337.533 82.9337 333.667C76.1337 329.667 76.0003 329.4 75.6003 322.733C75.2003 315.933 75.3337 315.667 80.267 312.6C83.067 310.867 87.3337 308.333 89.7337 307.133C93.867 305 94.0003 305 94.0003 307.533C94.0003 309 92.9337 310.467 91.6003 310.867C88.667 311.8 83.3337 316.6 83.3337 318.2C83.3337 320.333 88.5337 320.733 91.2003 318.733C93.867 317 94.0003 317.133 94.0003 320.733C94.0003 325.533 96.8003 328.333 99.067 326.067C100 325.133 100.667 322.733 100.667 320.6C100.667 316.733 100.667 316.733 103.867 318.867C107.467 321.133 111.334 320.467 111.334 317.533C111.334 316.467 108.934 314.067 105.867 312.067C101.334 309.133 100.534 307.933 100.934 304.467C101.334 301 102.667 299.667 112.267 294.2C122.134 288.467 123.2 288.2 123.734 290.467C124.267 292.467 123.067 293.933 119.067 296.467C116.134 298.333 113.067 300.2 112 300.467C109.467 301.533 108.667 306.067 110.934 306.867C112 307.267 115.2 306.467 118 305C124.267 301.8 124.267 301.8 124.267 304.467C124.267 305.667 122.267 307.8 119.734 309.267C117.067 310.867 115.334 313 115.334 314.6C115.334 317 115.867 317.133 120 316.467C124.267 315.667 124.667 315.8 124.667 318.867C124.667 320.733 125.334 322.6 126 323C128 324.2 131.334 321.267 131.334 318.467C131.334 316.6 132.267 316.2 135.334 316.733C138.667 317.267 139.334 316.867 139.334 314.467C139.334 312.733 137.867 311 135.334 309.667C132.934 308.467 131.334 306.6 131.334 305C131.334 301.667 131.467 301.667 137.067 305C141.334 307.533 146 307.533 146 305C146 303.133 142.4 300.067 136.667 296.867C131.734 294.067 131.334 293.4 131.334 288.333C131.334 282.867 131.467 282.867 141.467 277.133L151.467 271.4L166.4 275.533L181.334 279.667L191.6 289.933L202 300.333V311.933C202 323.4 202 323.533 197.734 326.467L193.467 329.533L186.134 325.533C173.334 318.6 168.934 322.867 181.2 330.333C185.6 333 186 333.533 184 334.733C182.4 335.533 180.134 335.267 176.667 333.667C169.467 330.467 165.734 333.267 171.2 337.8C173.467 339.8 173.467 340.067 170.267 343.267C167.2 346.333 167.2 346.733 169.067 347.933C170.534 348.6 172.267 348.6 173.867 347.667C177.467 345.8 178 345.933 178 348.6C178 349.933 178.534 351.8 179.2 352.867C181.334 356.2 184.667 352.067 184.667 346.333C184.667 343.133 185.334 341 186.667 340.467C188.267 339.933 188.667 341 188.667 345.533C188.667 349.133 189.467 351.933 190.667 353C194.134 355.8 195.867 352.6 195.467 344.2C195.2 336.867 196.667 333 200 333C201.334 333 201.6 336.2 201.467 346.067C201.2 358.6 201.067 359 197.6 361C194.267 362.867 193.6 362.733 189.867 360.6C187.6 359.4 184.667 358.333 183.2 358.333C179.467 358.333 180 362.6 184 365.133L187.467 367.133L184 369C179.6 371.267 179.334 376.2 183.734 375.267C185.334 375 187.734 374.2 189.067 373.667C190.934 372.867 191.334 373.4 191.334 376.733C191.334 381.533 193.334 383.267 196.134 380.867C197.467 379.8 198 377.4 197.734 373.8C197.467 369.533 197.867 368.2 199.6 367.933C201.6 367.533 201.867 368.867 201.6 377.667L201.467 387.933L195.467 391.4L189.6 394.867L182.8 391.267C179.067 389.267 174.934 387.667 173.6 387.667C169.334 387.667 171.2 392.333 176.934 395.533C182.134 398.467 182.267 398.867 180 400.467C176.267 403.267 174.4 402.867 164.4 397C155.334 391.8 152.534 390.867 150.934 392.467C149.334 394.2 151.867 397.267 157.867 400.6C167.867 406.333 168 406.467 164.4 409.133C161.467 411.4 161.2 411.4 157.2 408.867C153.2 406.467 148.667 406.6 148.667 409.133C148.667 409.667 149.867 411.4 151.467 412.867L154.267 415.4L151.467 416.867C148 418.733 147.734 423.667 151.067 423.667C152.267 423.667 154.267 423 155.334 422.333C156.934 421.4 157.467 421.8 158 424.733C158.534 427.267 159.467 428.333 161.334 428.333C163.467 428.333 164.134 427.267 164.667 422.467C165.2 418.333 166.267 416.067 168.4 414.6L171.334 412.733V422.733C171.334 430.067 171.867 433.133 173.334 434.333C177.2 437.533 178.667 433.8 178.667 420.733C178.8 409.4 178.934 408.6 182 407C185.334 405.267 185.334 405.267 186 412.067C186.534 417.933 187.067 419 189.334 419C191.734 419 192.134 417.933 192.667 409.8C193.334 401 193.6 400.333 197.6 397.933L201.867 395.533V412.067V428.467L197.867 430.867C194.134 433.133 193.734 433.133 189.467 430.467C187.067 428.867 184 427.667 182.8 427.667C179.6 427.667 180.134 432.333 183.734 434.733L186.667 436.867L183.734 439C182 440.2 180.667 441.933 180.667 442.867C180.667 445.267 183.734 446.333 186.134 444.867C189.2 443 191.067 443.533 190.534 445.933C190.134 447.267 190.8 449.533 192 451L194 453.667L196.134 451C197.2 449.533 198 446.467 197.734 444.333C197.467 440.067 198.667 437 200.8 437C201.6 437 202 439.933 201.734 443.8C201.334 450.2 200.934 451 196.267 453.933C189.067 458.467 191.734 462.467 199.734 459C201.734 458.2 202 458.867 202 464.733C202 468.467 202.667 471.933 203.334 472.333C206.134 474.067 208.667 470.067 208.667 464.067C208.667 458.733 208.934 458.333 211.2 459.667C218.534 463.533 220.667 458.467 213.467 454.2C209.334 451.8 208.934 451 208.4 444.2C208.134 438.6 208.4 437.133 209.734 437.667C210.8 438.067 211.867 438.333 212.134 438.333C212.4 438.333 212.667 441.267 212.667 444.867C212.667 448.6 213.334 451.933 214 452.333C216.134 453.667 219.334 450.333 219.334 446.867C219.334 443.267 219.734 443.133 223.334 445C224.667 445.667 226.667 445.933 227.734 445.533C230.4 444.6 229.067 439.933 225.867 439C222.534 437.933 222.667 436.067 226 434.333C229.067 432.733 229.6 427.667 226.8 427.667C225.734 427.667 222.667 428.867 220.134 430.467C215.734 433 215.334 433 212.134 430.867C208.667 428.733 208.667 428.467 208.667 412.067V395.533L212.667 398.333C216.267 401 216.667 401.8 216.667 408.867C216.667 414.067 217.334 417.267 218.667 418.333C221.734 420.867 223.334 418.6 223.334 411.533C223.334 407.933 223.6 405 224 405C224.4 405 226.267 405.933 228 407.133C231.067 409.133 231.334 410.067 231.334 421C231.334 429 231.867 433.133 233.067 434.2C236.4 436.867 238 433 238 422.6V412.733L241.067 414.6C242.934 415.933 244.134 418.2 244.4 421.4C245.067 429.133 251.334 431.8 251.334 424.333C251.334 421.4 251.6 421.267 255.334 422.733C261.334 425 263.467 422.2 258.934 418.067C255.6 415 255.6 414.867 258.134 413.267C259.467 412.333 260.667 410.867 260.667 409.8C260.667 406.867 256.534 406.067 253.2 408.333C249.334 410.867 247.2 410.867 244 408.6C241.867 406.867 242.267 406.333 249.734 401.8C257.334 397.267 260.134 394.2 258.4 392.467C256.8 390.867 254 391.8 244.934 397C234.934 402.733 233.2 403.133 229.6 400.467C227.334 398.733 227.6 398.333 232.534 395.533C237.867 392.6 239.734 388.467 236.4 387.267C235.467 387 231.467 388.6 227.467 390.733L220.4 394.733L214.534 391.533L208.667 388.333V377.933C208.667 370.2 209.067 367.533 210.4 367.933C211.2 368.333 212.134 371.133 212.4 374.467C212.667 377.667 213.334 380.867 214 381.533C215.867 383.4 219.334 379.8 219.334 376.333C219.334 373.4 219.6 373.4 223.334 374.733C229.467 377 231.467 374.2 226.667 369.8C223.067 366.467 223.067 366.467 225.867 364.733C228.934 362.867 229.6 358.867 227.067 357.933C226.134 357.667 223.2 358.6 220.4 360.2C216.134 362.6 215.2 362.733 212.267 361.133C209.067 359.4 208.8 358.6 208.4 346.2C208 333.133 208.8 331 212.4 334.6C213.334 335.533 214 339.667 214 343.8C214 348.467 214.667 351.933 215.734 352.867C218.534 355.133 220.667 351.933 220.667 345.4C220.667 340.867 221.067 339.933 222.667 340.467C224 341 224.667 343.133 224.667 346.333C224.667 351.4 227.467 355.267 230 353.667C230.667 353.267 231.334 351.4 231.334 349.533C231.334 345.8 231.334 345.8 236 347.933C238.267 349 239.867 349 240.8 348.067C242.667 346.2 241.067 342.867 237.6 341.4L234.667 340.067L237.734 338.467C241.067 336.733 241.734 331.667 238.667 331.667C237.467 331.667 234.667 332.6 232.534 333.8C228.4 335.8 224.667 335.533 224.667 333.133C224.667 332.467 225.734 331.533 227.067 331.133C230 330.2 235.334 325.4 235.334 323.8C235.334 320.867 230.934 321.533 224.134 325.133C216.667 329.267 216.667 329.267 212.4 326.733L208.267 324.333L208.534 312.333L208.8 300.333L219.734 289.533L230.667 278.733L244.134 275.267L257.734 271.667L267.467 277.4C276.934 283 277.334 283.4 277.734 288.733C278.134 294.067 278 294.333 271.467 297.933C264.4 301.8 262.267 304.467 264.667 306.867C265.6 307.8 267.867 307.267 272 305.267C278 302.333 278 302.333 278 305.133C278 306.733 276.4 308.733 274.134 310.067C271.867 311.267 269.867 313.267 269.6 314.6C268.8 317.133 272.667 318.6 275.867 316.733C277.6 315.8 278 316.2 278 318.733C278 322.867 280.934 325.533 283.067 323.4C284 322.467 284.667 320.467 284.667 318.733C284.667 315.4 286 314.867 288.134 317C290 318.867 294 317.267 294 314.867C294 313.8 291.867 311.667 289.334 310.2C286.667 308.6 284.667 306.333 284.667 304.867C284.667 301.667 284.934 301.667 290.267 305C296 308.467 299.334 308.467 299.334 305C299.334 303.133 297.067 301 292 298.2C287.067 295.533 284.667 293.267 284.667 291.533C284.667 290.2 285.2 289 285.867 289C286.534 289 291.867 291.8 297.867 295.267C307.6 301 308.667 302.067 308.667 305.667C308.667 309 307.734 310.2 303.2 312.733C295.2 317.4 297.734 322.733 306.4 319C308.267 318.2 308.667 318.733 308.667 322.067C308.667 324.333 309.334 326.6 310 327C312.134 328.333 315.334 325 315.334 321.533C315.334 318.733 315.6 318.467 318.534 319.933C320.4 320.733 322.8 321 324 320.467C326.934 319.4 324.534 315 319.334 312.333C317.067 311.133 315.334 309.267 315.334 308.2C315.334 305.533 317.2 306.2 326.667 312.333C333.867 316.867 334 317 334 323.4C334 329.8 333.867 329.933 327.334 333.533C319.734 337.667 316.534 341.933 320 343.267C321.2 343.667 324.534 342.733 327.334 341.133C333.734 337.533 334 337.533 334 342.2C334 345.667 332.934 346.733 324 351.667C313.067 357.667 309.6 361.533 313.867 363C315.467 363.4 319.334 362.067 324.4 359C328.8 356.467 332.667 354.333 332.934 354.333C333.2 354.333 333.2 356.333 332.934 358.733C332.534 361.8 331.334 363.667 328.534 365.267C324.4 367.667 323.467 371.267 326.667 372.467C327.734 373 329.6 372.6 330.667 371.667C332.4 370.333 332.667 370.6 332.667 373.4C332.667 377 335.734 380.333 338 379C338.667 378.6 339.334 376.467 339.334 374.2C339.334 370.067 340.534 369.4 342.934 371.8C344.934 373.8 348.667 372.333 348.667 369.667C348.667 368.467 346.534 366.333 344 364.867C340.4 362.733 339.334 361.267 339.334 358.2C339.334 356.067 339.6 354.333 339.867 354.333C340.267 354.333 344 356.467 348.267 359C356.134 363.667 359.867 364.733 361.334 362.333C362.534 360.467 357.867 356.467 348.934 351.4C342 347.667 340.8 346.467 340.4 342.733C339.734 337.533 340 337.533 345.334 341C350 344.067 355.334 344.467 355.334 341.8C355.334 339.667 351.467 336.333 344.8 332.733C341.334 330.867 340.667 329.667 340.667 325.667C340.667 323 341.2 321 341.867 321.267C342.534 321.4 348.8 325 355.867 329C367.867 335.933 368.667 336.6 368.667 340.6C368.667 344.2 367.734 345.533 363.334 348.333C360.4 350.2 358 352.6 358 353.667C358 355.933 362.267 356.333 366.134 354.333C368.4 353.133 368.667 353.4 368.667 356.733C368.667 361.533 371.467 364.333 373.734 362.067C374.667 361.133 375.334 358.733 375.334 356.6C375.334 352.733 375.334 352.733 378.534 354.867C381.6 356.867 386 356.6 386 354.467C386 352.867 382.8 349.533 379.067 347.267C376.934 345.933 375.334 344.067 375.334 342.867C375.334 341.133 376.267 341.4 381.067 343.933C386 346.733 386.667 347.667 387.067 352.333C387.6 358.867 389.6 361.667 392.134 359.533C393.2 358.733 394 356.467 394 354.733V351.4L398.8 354.2C404.667 357.667 408.667 357.8 408.667 354.6C408.667 353.133 406.534 350.867 403.334 349.133L397.867 346.067L401.467 342.733C404.134 340.2 404.667 339.133 403.467 337.933C402.267 336.733 400.667 337 396.534 339.267L391.334 342.067L385.2 338.733C380.667 336.2 379.467 335 380.667 333.8C381.734 332.733 383.467 333.133 387.467 335.267C392.934 338.333 396.667 338.067 396.667 334.867C396.667 333.933 395.2 332.067 393.334 330.867L390 328.733L393.334 326.067C395.2 324.6 396.667 322.6 396.667 321.533C396.667 319.4 390.667 318.867 389.334 321C387.734 323.667 386 322.333 386 318.467C386 316.2 385.334 314.067 384.667 313.667C381.867 311.933 379.334 315.933 379.334 321.667C379.334 326.733 378.934 327.533 375.334 329C371.6 330.6 370.534 330.2 358 322.867C350.667 318.467 344.667 314.6 344.667 314.067C344.667 313.533 346.4 312.2 348.667 311C352.4 309.133 352.8 309.133 358.934 313C365.2 317 369.2 317.933 370.534 315.8C371.6 314.2 368.667 311 363.467 307.933L359.067 305.267L362.8 303.267C366.534 301.4 367.067 301.533 376.934 307.267C386.4 312.867 391.334 313.933 391.334 310.467C391.334 308.6 389.2 306.867 380.8 301.667L373.6 297.267L377.067 295.133C380.267 293 380.667 293 384.667 295.533C389.2 298.2 392.667 297.933 392.667 294.867C392.667 293.8 391.467 292.333 390.134 291.4C387.6 289.8 387.6 289.667 390.8 286.733C395.6 282.333 394.934 280.467 388.667 281.533C384 282.2 383.334 282.067 383.334 279.8C383.334 278.333 382.667 276.733 382 276.333C379.6 274.867 376.667 278.467 376.667 283C376.667 286.2 375.734 287.933 373.334 289.533L370 291.667V281.8C370 275.267 369.467 271.533 368.267 270.467C364.8 267.667 363.334 271.667 363.334 283.933C363.334 295.533 363.334 295.667 359.334 297.667L355.334 299.8V293.133C355.334 286.067 353.734 283.8 350.667 286.333C349.334 287.4 348.667 290.6 348.667 295.667V303.4L342.8 306.867L336.8 310.333L328.4 305.533C318 299.533 318.534 299.933 320.267 298.2C321.467 297 323.067 297.4 326.4 299.533C334.4 304.467 339.334 302.333 333.6 296.467L330.267 293.267L333.467 290.467C335.2 288.867 336.667 287.133 336.667 286.467C336.667 284.067 332.267 283.667 329.2 285.667C326.134 287.667 326 287.667 326 283.8C326 281.8 325.2 279.4 324.267 278.467C321.467 276.2 319.334 279.4 319.334 285.667C319.334 290.2 318.667 291.4 315.467 293.4C311.6 295.667 311.6 295.667 299.867 288.733C288.934 282.333 288.4 281.8 291.2 280.467C293.734 279.4 295.467 279.8 300.667 282.733C313.867 290.067 317.2 285.133 304.667 276.733C301.6 274.733 301.467 274.467 303.867 273.533C305.334 273 307.734 273.533 310.267 274.867C312.4 276.2 315.067 276.867 316.134 276.467C318.8 275.4 318.4 272.067 315.467 270.333C312.934 269 312.934 268.867 316.267 265.533C319.334 262.467 319.467 261.933 317.6 260.733C316.134 260.067 314.4 260.067 312.8 261C309.067 262.867 308.667 262.733 308.667 259.133C308.667 257.267 308 255.4 307.334 255C304.8 253.4 302 257.267 302 262.333C302 265.667 301.334 267.667 299.867 268.2C296.4 269.533 296.267 269.267 297.2 263.267C297.867 258.867 297.6 257 296.134 255.8C292.8 253 291.334 255.4 291.334 264.333C291.334 272.6 291.2 272.867 286.667 275.667L282 278.467L271.6 272.333L261.2 266.067L257.467 251.533L253.734 237L257.467 222.467L261.334 207.8L271.867 201.933L282.267 195.933L286.8 198.6C291.2 201.133 291.334 201.533 291.334 209.667C291.334 214.333 292 218.6 292.667 219C295.467 220.733 298 216.733 298 210.733C298 205.533 298.267 204.867 300 206.333C301.067 207.267 302 209.933 302 212.333C302 217.667 305.067 220.733 308 218.333C309.067 217.4 310 215.933 310 214.867C310 213.667 311.334 213.4 314.667 213.933C318.4 214.467 319.334 214.2 319.334 212.6C319.334 211.4 317.867 209.4 316 208.2C312.667 205.933 312.667 205.933 315.334 204.067C318.267 201.933 318.8 198.867 316.4 197.933C315.467 197.667 312.534 198.467 309.734 199.8C305.6 201.933 304.667 201.933 303.334 200.333C302 198.733 302.534 198.067 306.534 196.2C311.2 193.933 313.334 191.133 311.867 188.867C310.667 186.867 307.734 187.533 300.8 191.533C295.334 194.867 293.867 195.133 291.867 193.8C289.867 192.333 290.934 191.267 300.8 185.267C311.734 178.733 312 178.6 315.6 180.733C318.8 182.6 319.334 183.8 319.334 188.467C319.334 194.6 321.867 197.933 324.4 195.4C325.334 194.467 326 192.467 326 190.733C326 187.533 327.867 186.6 329.334 189C329.734 189.667 331.6 190.333 333.467 190.333C338.267 190.333 337.467 185.667 332.134 182.733C329.734 181.4 329.734 181.267 333.067 179C340.667 174.067 335.334 170.067 327.2 174.6C323.6 176.6 321.6 177.133 320.534 176.067C319.6 175.133 321.734 173.267 327.334 169.8C331.867 167.133 336.134 165 336.934 165C337.734 165 341.067 166.467 344.267 168.333L350 171.8V180.333C350 185 350.667 189.267 351.334 189.667C354.134 191.4 356.667 187.4 356.667 181.533C356.667 175.8 356.667 175.8 360 177.267C363.2 178.733 363.334 179.267 363.334 191C363.334 199.667 363.867 203.8 365.067 204.867C368.4 207.533 370 203.667 370 193.4C370 188.067 370.267 183.667 370.667 183.667C371.067 183.667 372.8 184.6 374.4 185.667C376.534 187 377.6 189.133 377.734 192.6C378 195.4 378.667 198.2 379.334 198.867C381.067 200.6 384.667 197.267 384.667 194.067C384.667 191.933 385.067 191.8 387.467 193C390.4 194.6 394 193.933 394 191.667C394 190.867 392.8 189.267 391.467 188.067C388.8 185.933 388.8 185.8 391.467 182.467C393.867 179.4 394 179.133 391.867 177.933C390.267 177 388.534 177.267 386 178.867C381.467 181.4 379.467 181.533 376.267 179C374 177.4 374.4 176.867 382.534 172.2C388.267 168.867 391.334 166.2 391.334 164.733C391.334 161 387.067 161.8 376.667 167.8C368.4 172.6 366.667 173.133 363.867 171.8C359.467 169.8 359.867 168.733 365.6 165.667C368.4 164.2 370.8 162.067 371.067 160.867C371.867 156.867 367.334 157 360 161.133C353.067 165 352.667 165.133 348.8 163C346.534 161.933 344.667 160.733 344.667 160.467C344.667 160.2 350.934 156.333 358.667 151.8C372.267 143.8 372.8 143.667 376 145.8C378.534 147.4 379.334 149.133 379.334 152.867C379.334 155.667 380.267 159 381.334 160.467C383.334 163 383.334 163 385.334 160.467C386.4 159 387.334 156.733 387.334 155.4C387.334 153.267 387.734 153.133 390.134 154.333C396 157.533 399.2 152.2 393.734 148.467L390.8 146.333L393.734 144.2C397.2 141.8 397.734 137 394.534 137C393.334 137 390.267 138.2 387.867 139.8C384.8 141.667 382.8 142.2 381.2 141.267C379.467 140.333 380.134 139.4 385.467 136.467L392 132.867L396.934 135.667C402 138.467 404.667 138.333 404.667 135.267C404.667 134.333 403.067 132.6 401.067 131.533L397.6 129.267L403.067 126.2C408.934 122.733 411.067 118.733 407.467 117.933C406.267 117.667 402.8 118.867 399.734 120.6L394.134 123.8L393.734 119.4C393.067 112.467 389.467 113.667 388.934 121C388.534 126.467 388 127.267 383.334 130.067C374 135.4 371.867 132.733 380.667 126.867C388.534 121.667 386.267 116.733 377.734 120.333C375.734 121.133 375.334 120.6 375.334 117.267C375.334 115 374.667 112.733 374 112.333C371.867 111 368.667 114.333 368.667 117.8C368.667 121.267 367.334 121.8 365.067 119.533C364.267 118.733 362.4 118.467 360.8 119C358.534 119.667 358.267 120.333 359.334 122.467C360.134 123.8 362.534 125.933 364.8 127C368.267 128.867 368.8 129.8 368.4 133.933C368 139.133 368.667 138.6 348.4 150.2L340.667 154.467V149.4C340.667 144.733 341.2 144.067 347.467 140.6C354.667 136.467 356.667 133.8 354.134 131.267C353.067 130.2 351.334 130.6 347.467 132.733C340.934 136.467 340.667 136.467 340.667 131.933C340.667 128.733 342 127.533 350.934 122.333C356.667 119 361.467 115.267 361.734 114.2C362.534 110.067 358 110.467 350.134 115C345.734 117.533 341.867 119.667 341.467 119.667C341.067 119.667 340.667 117.933 340.667 115.667C340.667 112.733 341.6 111.267 344.534 109.8C347.867 108.067 350 105.267 350 102.733C350 102.333 348 102.333 345.467 102.733C341.2 103.4 340.8 103.133 340.4 99.9333C340.134 97.3999 339.2 96.3333 337.334 96.3333C335.467 96.3333 334.534 97.3999 334.267 99.9333C333.867 103.267 333.467 103.4 329.067 102.733C324.8 102.067 324.4 102.2 325.067 104.2C325.6 105.533 326 106.733 326 107.133C326 107.4 327.867 108.467 330 109.667C333.067 111.267 334 112.6 334 115.667C334 117.933 333.6 119.667 333.2 119.667C332.8 119.667 328.667 117.533 324.134 115C318.8 112.067 315.334 110.867 314.134 111.533C310.934 113.533 313.467 116.333 323.867 122.333C332.667 127.4 334 128.6 334 131.933C334 136.333 333.334 136.467 327.734 133C323.067 130.2 318.934 130.733 319.6 134.067C319.867 135.267 323.2 138.067 327.067 140.2L334 144.2V151.133C334 158.733 334 158.733 323.067 164.867C315.867 168.867 315.334 169 315.334 166.467C315.334 165 316.4 163.533 317.734 163.133C320.667 162.2 326 157.4 326 155.8C326 153.4 321.467 153 318.534 155C315.467 157 315.334 157 315.334 153.133C315.334 148.467 312.534 145.667 310.267 147.933C309.334 148.867 308.667 151.267 308.667 153.267C308.667 157 308.534 157 305.467 155C302.534 153 298 153.4 298 155.8C298 157.4 303.334 162.2 306.267 163.133C308.267 163.667 308.667 165 308.4 168.733C308 173.133 307.334 173.933 297.067 179.8C286.4 185.933 286 186.067 286 183C286 180.6 287.6 178.867 292.534 176.067C296.267 174.067 299.467 171.4 299.734 170.067C300.8 166.467 296.134 165.933 290.8 169.133C286 171.933 286 171.933 286 169.267C286 167.533 287.6 165.533 290 164.067C292.267 162.867 294 160.6 294 159.267C294 157.133 293.2 156.867 290 157.267C286.934 157.8 286 157.4 286 155.533C286 152.733 282.667 149.8 280.667 151C280 151.4 279.334 153.267 279.334 155C279.334 157.933 278.934 158.067 274.667 157.4C268.4 156.333 268.267 159.933 274.667 163.933C277.2 165.667 279.334 168.067 279.334 169.267C279.334 172.2 279.067 172.2 272.667 169C267.2 166.2 263.067 166.6 264.267 169.8C264.667 170.867 268.267 173.8 272.134 176.333C278.534 180.467 279.334 181.533 279.334 185.533C279.334 189.8 278.667 190.467 268.667 196.2L258 202.333L243.734 198.867L229.334 195.267L218.8 184.2L208.267 173L208.534 161.267C208.8 151.133 209.2 149.4 211.734 147.4C215.734 144.2 216.8 144.333 224.667 149C235.2 155.133 240.267 150.733 230 144.333C224.8 141 224 138.333 228.134 138.333C229.2 138.333 231.6 139.267 233.334 140.467C237.067 142.867 240.667 142.2 240.667 139.133C240.667 137.933 239.467 136.467 238.134 135.667C235.6 134.333 235.6 134.2 238.8 131C240.667 129.133 241.734 127 241.334 126.333C240.267 124.6 235.734 124.6 234.667 126.333C233.2 128.733 231.334 127.667 231.334 124.467C231.334 122.6 230.667 120.733 230 120.333C227.467 118.733 224.667 122.6 224.667 127.667C224.667 130.867 224 133 222.667 133.533C221.067 134.067 220.667 133 220.667 128.467C220.667 122.6 218.134 118.6 215.334 120.333C214.667 120.733 214 125 214 129.667C214 136.867 213.6 138.467 211.334 139.667C208.8 141 208.667 140.733 208.667 127.8C208.667 114.467 208.667 114.333 212.4 112.6C215.6 110.867 216.4 111 220 113.133C227.6 117.933 232.667 115.267 226.667 109.8C223.067 106.467 223.067 106.467 225.867 104.733C229.067 102.733 229.6 98.9999 226.8 97.9333C225.867 97.5332 223.734 98.0666 222.134 99.1332C219.467 101 219.334 101 219.334 97.2666C219.334 92.4666 216.4 89.3999 214.267 92.0666C213.467 92.9999 212.667 96.3333 212.4 99.5332C212.134 102.867 211.2 105.667 210.4 106.067C209.067 106.467 208.667 103.8 208.667 95.9333V85.2666L214.534 81.9333L220.267 78.7332L227.6 82.7332C239.467 89.3999 243.6 84.7332 232 77.7999L226.934 74.5999L230.667 72.5999C234.4 70.7332 234.934 70.8666 244.4 76.4666C253.867 82.0666 256.667 83.1332 258.267 81.5332C260.4 79.5332 257.067 75.7999 249.734 71.6666L241.6 67.2666L244.667 64.7332C247.6 62.3333 247.734 62.3333 252.134 64.8666C256.8 67.6666 260.667 67.3999 260.667 64.1999C260.667 63.1332 259.467 61.6666 258.134 60.7332C255.6 59.1332 255.6 58.9999 258.934 55.9333C263.467 51.7999 261.334 48.9999 255.334 51.2666C251.6 52.7332 251.334 52.5999 251.334 49.6666C251.334 47.9333 250.667 46.0666 250 45.6666C247.6 44.1999 244.667 47.7999 244.667 52.3333C244.667 55.5332 243.734 57.2666 241.334 58.8666L238 60.9999V51.1332C238 44.1999 237.467 40.8666 236 39.6666C232.4 36.7332 231.334 39.6666 231.334 52.3333V64.8666L227.334 66.9999L223.334 69.1332V62.5999C223.334 55.5332 221.334 52.1999 218.4 54.4666C217.334 55.3999 216.667 58.9999 216.667 64.4666C216.667 71.6666 216.267 73.1332 213.734 74.8666C212.134 76.0666 210.267 76.9999 209.734 76.9999C209.067 76.9999 208.667 69.7999 208.667 60.9999C208.667 45.5332 208.8 44.9999 212 42.8666C215.067 40.8666 215.6 40.8666 220 43.5332C228.267 48.3333 232.667 46.1999 226.8 40.3333L223.467 36.9999L226.934 33.5332C230.134 30.3333 230.267 29.9333 228.134 28.7332C226.534 27.7999 224.667 27.7999 222.534 28.8666C219.6 30.0666 219.334 29.9333 219.334 27.1332C219.334 23.6666 216.134 20.3333 214 21.6666C213.334 22.0666 212.667 25.1332 212.667 28.1999C212.667 31.7999 211.867 34.5999 210.667 35.6666C208.934 37.1332 208.667 36.3333 208.667 29.9333C208.667 22.9999 208.934 22.4666 213.334 19.6666C221.334 14.7332 218.667 11.1332 209.867 14.8666C208 15.6666 207.6 14.8666 207.734 9.93326C207.734 2.46658 205.734 -1.00009 202.934 1.93326ZM202 197.533V211.533L194.134 216.2C189.867 218.867 185.867 221 185.334 221C183.867 221 160.4 207.4 160.934 206.867C161.2 206.6 166.534 205.267 172.667 203.8C183.867 201.267 184.134 201.133 192 192.467C196.4 187.667 200.4 183.8 201.067 183.667C201.6 183.667 202 189.933 202 197.533ZM217.734 192.867L226.667 201.933L238.4 204.333L250.134 206.733L238 213.8C231.334 217.8 225.334 221 224.667 221C224 221 220.134 219 216 216.467L208.534 211.933L208.267 197.8C208.134 190.067 208.134 183.667 208.4 183.667C208.534 183.667 212.8 187.8 217.734 192.867ZM175.334 223.667L181.334 227.133L181.734 236.6L182.134 246.067L169.734 253.4C162.934 257.4 157.2 260.6 157.067 260.467C156.8 260.2 158.4 254.867 160.534 248.6L164.534 237L160.534 225.4C158.4 219 156.667 213.533 156.667 213.267C156.667 213 159.467 214.467 163.067 216.467C166.534 218.467 172 221.667 175.334 223.667ZM249.6 226.2L246.267 236.867L250 249C252 255.533 253.467 261 253.067 261C252.667 261 247.067 257.8 240.667 254.067L228.8 247L228.4 237.133L228 227.4L240 220.333C246.667 216.333 252.134 213.667 252.4 214.333C252.667 215 251.334 220.333 249.6 226.2ZM194.134 257.8L202 262.467V276.467C202 284.067 201.734 290.333 201.467 290.333C201.2 290.333 196.934 286.2 192.134 281.267C183.334 272.2 183.2 272.067 171.867 269.667C165.2 268.333 160.934 266.867 161.734 266.067C164 263.8 182.667 253.133 184.534 253.133C185.467 253 189.867 255.133 194.134 257.8ZM234.534 258.2C250.8 267.267 250.667 266.867 237.867 270.2C227.467 273 226.134 273.8 218 281.8C213.2 286.467 208.934 290.333 208.667 290.333C208.267 290.333 208.134 283.8 208.4 275.933L208.8 261.4L215.734 257.4C219.6 255.133 223.2 253.133 223.867 253.133C224.534 253 229.334 255.4 234.534 258.2Z" fill="#B3E2FF"/>
</svg>
