<svg width="420" height="479" viewBox="0 0 420 479" fill="none" xmlns="http://www.w3.org/2000/svg">
    <path d="M199.6 8.06665L192 15.8V37V58.3333L179.6 45.9333L167.2 33.5333L155.2 33.9333L143.333 34.3333L142.933 45.8L142.533 57.1333L167.333 81.6667L192 106.2V116.733V127.267L184.133 120.467C176.4 113.8 176.133 113.667 167.467 113.667H158.667V123.267V133L174.667 149L190.667 165L173.733 174.6C164.4 179.933 156.533 184.067 156.4 183.8C156.133 183.533 153.333 173.667 150.133 161.8C147.067 149.933 144.133 140.067 143.867 139.933C143.6 139.667 139.867 137.533 135.733 135.133L128.133 130.867L124.667 136.333C118.267 146.467 118.133 147.133 121.067 157.533C122.533 162.733 123.467 167 123.2 167C122.8 167 118.667 164.733 114 161.933L105.6 157L97.8666 127.667C93.7333 111.533 89.7333 96.4666 89.0667 94.0667C88.1333 90.7333 86 88.7333 78.5333 84.4666C73.3333 81.4 68.4 79 67.6 79C66.6666 79 63.4666 83.4 60.4 88.8667L54.8 98.6L58.8 114.333C61.0666 122.867 62.5333 130.2 62.1333 130.6C61.8666 130.867 53.8666 126.6 44.2666 121L27.0666 110.867L15.8666 113.667C9.73331 115.267 4.39998 116.733 4.13331 117C3.86664 117.267 5.06664 122.733 6.79998 129L9.73331 140.6L28.1333 151.4C38.2666 157.4 45.8666 162.6 45.2 163.133C44.4 163.533 36.9333 165.667 28.4 167.8L13.0666 171.667L7.73331 180.867C4.66664 185.933 2.26664 190.867 2.13331 191.8C2.13331 192.733 6.53331 196.2 11.8666 199.4L21.8666 205.267L55.8666 196.6L90 187.933L98.5333 193C103.6 196.067 106.267 198.467 105.2 198.867C104.133 199.133 99.4666 200.467 94.6666 201.667C86.4 203.667 85.8666 204.067 81.7333 211.133C79.3333 215.133 77.3333 219 77.3333 219.667C77.3333 220.467 80.8 223.133 84.9333 225.533L92.5333 230.067L112.533 225.133C123.6 222.333 133.467 219.8 134.4 219.4C135.6 218.867 136 223.4 136 238.867C136 249.933 135.6 259 135.067 259C134.4 258.867 124.667 256.333 113.333 253.133L92.6666 247.4L85.3333 251.4C81.3333 253.533 77.4666 255.8 76.9333 256.333C76.4 256.867 78 260.867 80.5333 265.267C85.2 273.133 85.4666 273.4 94 275.667C98.8 277 103.067 278.6 103.467 279.133C103.733 279.667 100.267 282.333 95.6 285L87.0667 289.667L54 280.733L21.0666 271.8L11.0666 277C5.59998 279.933 0.799976 282.733 0.533309 283.267C0.133309 283.8 2.53331 289 5.86664 294.6L11.8666 305L26.2666 308.867C34.1333 311 41.3333 313.133 42.2666 313.533C43.0666 313.933 35.8666 319 26.1333 324.733L8.39998 335.133L5.33331 346.467C3.73331 352.733 2.53331 358.067 2.79998 358.333C3.06664 358.6 8.39998 360.067 14.6666 361.667L26 364.6L42.6666 355C51.8666 349.8 60.4 344.867 61.6 344.2C63.6 343.133 63.7333 343.533 62.5333 347.4C61.8666 349.667 59.7333 357.4 57.8666 364.467L54.5333 377.267L60.1333 387.133C63.2 392.6 66 397.267 66.2666 397.533C66.6666 398.2 82.1333 390.333 86 387.533C87.3333 386.6 91.7333 372.867 97.2 352.467C102.267 333.933 106.533 318.733 106.8 318.467C108.667 317 124 308.467 124 309C124 309.4 122.8 314.2 121.2 319.667L118.533 329.667L122.667 337C124.933 341 127.333 344.6 128 345C128.8 345.4 132.8 343.8 136.933 341.267L144.667 336.867L149.6 318.867C152.4 309 155.067 299.4 155.6 297.4L156.667 293.8L172.667 303.133C181.467 308.2 188.8 312.867 189.067 313.4C189.2 314.067 182.533 321.8 174 330.6L158.667 346.733V355.533V364.333H168.267H177.867L185.6 356.733L193.333 349.133V359.533V369.933L169.333 394.733L145.333 419.667V431.933V444.333H156.933H168.667L180.933 432.067L193.333 419.667V440.333V461.133L202 469.667L210.533 478.2L213.6 475.667C215.333 474.2 219.2 470.733 222.4 467.8L228 462.467V439.8V417L241.067 430.067L254.133 443.133L265.467 442.733L276.667 442.333L277.067 430.333L277.467 418.333L252.667 393.667L228 369V358.333V347.8L235.733 355.4L243.467 363H253.067H262.667V353.4V343.667L247.067 328.067C238.533 319.4 231.733 312.2 232 311.933C233.733 310.467 261.333 295 262.267 295C262.8 295 265.733 304.2 268.667 315.4C274.4 337 275.067 338.333 285.2 344.067L290.667 347.133L295.6 339.4L300.4 331.8L298.667 323.667C297.733 319.267 296.667 314.2 296.267 312.467L295.6 309.267L301.467 312.867C304.667 314.867 308.533 317.133 310.133 317.933C312.533 319 314.4 325 321.867 353.4C326.8 372.2 330.933 387.667 331.067 387.8C337.333 392.067 350.933 399 351.867 398.333C352.667 397.933 355.733 393.4 358.8 388.2L364.133 378.867L360 362.867C357.733 353.933 356.133 346.467 356.4 346.2C356.8 345.8 365.067 350.333 374.933 356.2L392.933 366.733L404.533 363.933C412.533 361.933 416 360.467 416 359.133C416 358.067 414.8 352.6 413.2 347L410.533 336.733L393.867 327C384.667 321.533 376.933 316.733 376.533 316.2C376.267 315.667 382.8 313.667 391.067 311.667C399.2 309.667 406.933 307 408.133 305.8C409.333 304.6 412.533 299.667 415.2 294.867L420 285.933L409.733 279.933L399.333 273.8L365.733 282.2L332.133 290.6L323.067 285.267L314 279.8L324.4 277.267L334.667 274.733L339.333 266.733C341.867 262.467 344 258.6 344 258.467C344 258.2 340.4 255.8 336.133 253.267L328.267 248.6L307.733 253.8C296.533 256.6 286.533 259 285.733 259C284.4 259 284 254.2 284 239.533C284 221.667 284.133 220.2 286.4 220.867C287.6 221.267 297.6 223.933 308.4 226.867L328.133 232.2L336 227.4C340.4 224.867 344 222.333 344 221.8C343.867 221.4 342 217.667 339.6 213.667C335.467 206.867 334.533 206.2 327.2 203.933C312.933 199.533 313.067 199.933 322.8 194.6L331.467 189.667L365.333 198.867L399.333 208.067L409.733 202.067C415.467 198.733 420 195.533 419.733 195C419.467 194.333 416.933 189.667 414 184.467C408.133 173.933 410.933 175.533 382.8 167.4L374.133 164.867L392.8 154.467C402.933 148.6 411.467 143.8 411.733 143.533C412.533 143 417.333 123.933 417.333 121.533C417.333 119.933 414.267 118.6 406 116.467L394.8 113.4L377.067 123.4C367.333 129 359.2 133.4 359.067 133.267C358.933 133.133 360.8 125.8 363.067 116.867L367.2 100.867L361.333 90.6C358.133 85 355.2 80.3333 354.8 80.3333C354.4 80.3333 349.6 83 344.133 86.2L334.267 91.9333L325.2 124.867C320.267 143 316 158.067 315.733 158.333C314.8 159.267 298.8 168.333 298.267 168.333C297.867 168.333 298.8 164.067 300.267 158.867C303.2 148.467 303.067 147.8 296.667 137.667L293.2 132.333L285.2 136.6C276.267 141.533 277.733 138.467 269.2 169.933C266.933 178.6 264.667 185.4 264.133 185.133C263.733 184.867 256 180.333 246.933 175L230.533 165.4L246 149.533L261.333 133.667V123.667V113.667H252.4H243.467L235.067 121.933L226.667 130.2V119.667V109L251.333 84.3333L276 59.6667V47.4V35H263.733H251.333L239.067 47.2667L226.667 59.6667V38.3333V16.8667L218.267 8.59998C213.733 4.06665 209.333 0.333313 208.533 0.333313C207.867 0.333313 203.867 3.79999 199.6 8.06665Z" fill="#B3E2FF"/>
</svg>
