<svg width="426" height="373" viewBox="0 0 426 373" fill="none" xmlns="http://www.w3.org/2000/svg">
    <path d="M178.2 6.46661L167.4 12.6L162.334 31.4C158.867 43.9333 156.734 49.5333 156.067 48.2C155.4 47.1333 149.934 37.9333 143.934 27.8L133 9.26663L121.133 6.06662C114.734 4.33328 108.6 3.1333 107.8 3.39996C106.867 3.79996 104.734 9.66663 103 16.6L99.9335 29L112.2 50.2C118.867 61.8 124.2 71.5333 124.067 71.6666C123.8 71.8 115.133 69.6666 104.6 66.7333L85.5335 61.5333L74.3335 67.9333C68.0668 71.4 63.0002 75 63.0002 75.9333C63.0002 76.7333 65.8002 82.3333 69.2668 88.3333C74.6002 97.4 76.3335 99.2666 80.3335 100.333C82.8668 101.133 99.6668 105.667 117.667 110.467C135.667 115.267 151 119.933 151.934 120.733C153.534 122.333 179 165.267 179 166.333C179 166.733 166.2 167 150.6 167H122.334L95.0002 139.667L67.6668 112.333H53.4002H39.0002V125.8V139.4L52.6002 153.133L66.2002 167H42.8668H19.5335L9.9335 176.733L0.333496 186.333L10.0668 196.067L19.6668 205.667H44.3335H69.0002L54.6002 220.067L40.2002 234.467L40.6002 247.8L41.0002 261L55.0002 261.4L69.0002 261.667L97.0002 233.667L125 205.667H151.4C176.2 205.667 177.934 205.8 177 207.933C175.534 211.933 150.867 255 149.667 255.667C149 256.067 131.934 260.733 111.667 266.2C91.5335 271.533 74.7335 276.2 74.4668 276.467C71.1335 281 61.6668 299.533 62.6002 300.333C63.1335 300.867 68.4668 304.067 74.3335 307.533L85.0002 313.667L102.867 308.867C112.6 306.333 120.867 304.333 121 304.6C121.267 304.867 116.467 313.933 110.2 324.733L99.0002 344.333L101.8 355.267C106.067 372.067 104.867 371.267 118.867 367.667C125.267 366.067 131.267 364.333 132.067 363.933C132.734 363.4 138.6 353.8 145.133 342.467C151.667 331.133 157.133 322.067 157.4 322.2C157.534 322.467 159.934 330.867 162.734 341.133L167.8 359.533L178.334 365.933C184.2 369.4 189.934 372.333 191 372.333C192.067 372.333 195.8 367.267 199.4 361L205.8 349.8L195.667 312.6C190.2 292.067 185.667 274.6 185.667 273.8C185.667 272.867 191.8 261.8 199.133 248.867C211 228.467 212.867 225.8 214.334 227.933C219.267 235.267 240.334 272.333 240.334 273.8C240.334 274.6 235.8 292.2 230.334 312.6L220.334 349.933L226.6 361.133C230.2 367.267 233.8 372.333 234.734 372.333C236.734 372.333 255 362.2 257.134 359.933C257.934 359 260.2 352.067 262.2 344.333C264.2 336.6 266.467 328.333 267.267 325.933L268.6 321.533L280.333 341.8C286.867 352.867 292.6 362.467 293.267 363.133C294.867 364.733 319 371.4 319.934 370.467C320.334 370.2 322.067 364.2 323.8 357.267L327 344.6L315.667 324.867C309.534 314.067 304.6 304.867 304.867 304.6C305.134 304.333 313.267 306.333 323 309L340.6 313.667L350.067 308.467C366.334 299.533 365.667 301.133 358.334 288.467C354.734 282.467 351.267 277.133 350.467 276.6C349.667 276.067 332.467 271.133 312.334 265.667L275.8 255.667L261.534 231L247.267 206.333L274.067 205.933L300.867 205.667L329 233.667L357.134 261.8L371 261.4L385 261L385.4 247.8L385.8 234.733L371.4 220.2L357.134 205.667H381.8H406.467L416.067 195.933L425.667 186.333L415.934 176.6L406.334 167H383H359.667L373.4 153.267L387.134 139.533L386.734 126.2L386.334 113L372.334 112.6L358.334 112.333L331 139.667L303.667 167H275.4C259.8 167 247 166.733 247 166.467C247 166.2 253 155.667 260.333 142.867L273.667 119.8L307.267 110.867C325.8 105.933 343.267 101.133 345.934 100.333C350.334 99.1333 351.667 97.5333 357 87.6666C360.467 81.4 362.867 75.8 362.467 75.2666C362.067 74.6 356.867 71.2666 351 67.8L340.2 61.5333L322.067 66.3333C312.067 68.8666 303.4 71 302.867 71C302.2 71 307.267 61.5333 313.934 50.0666L326.067 29.2666L324.334 22.4666C320.734 8.19995 318.867 2.99997 317.267 2.99997C316.334 2.99997 310.6 4.46661 304.334 6.06662L293 9.1333L280.867 29.5333L268.734 49.8L263.667 31.2666L258.467 12.7333L247.534 6.59998C241.534 3.1333 236.067 0.333282 235.267 0.333282C233.4 0.333282 221.667 20.8666 221.667 23.9333C221.8 25.2666 226.2 42.4666 231.534 62.3333L241.267 98.3333L235 109C231.534 114.867 225.267 125.533 221.134 132.733C217 139.933 213 145.4 212.467 145.133C210.467 143.933 185.667 99.4 185.667 97.1333C185.667 95.9333 189.934 79.2666 195 60.0666C200.2 40.8666 204.334 24.4666 204.334 23.5333C204.334 21 191.8 0.333282 190.334 0.333282C189.667 0.333282 184.2 3.1333 178.2 6.46661Z" fill="#B3E2FF"/>
</svg>
